<?xml version="1.0" encoding="UTF-8" standalone="no"?>
<!DOCTYPE svg PUBLIC "-//W3C//DTD SVG 1.1//EN" "http://www.w3.org/Graphics/SVG/1.1/DTD/svg11.dtd">
<svg width="100%" height="100%" viewBox="0 0 700 700" version="1.1" xmlns="http://www.w3.org/2000/svg" xmlns:xlink="http://www.w3.org/1999/xlink" xml:space="preserve" xmlns:serif="http://www.serif.com/" style="fill-rule:evenodd;clip-rule:evenodd;stroke-linejoin:round;stroke-miterlimit:2;">
    <g transform="matrix(0.1,0,0,-0.1,0,700)">
        <path d="M3405,6901C3361,6875 3228,6796 3110,6725C2992,6655 2882,6590 2865,6580C2841,6566 2295,6243 2240,6210C2178,6173 1959,6043 1932,6028C1893,6006 1681,5881 1490,5766C1416,5722 1339,5676 1319,5665C1290,5649 1059,5513 952,5449C937,5440 832,5378 718,5310L510,5188L510,1765L563,1735C591,1719 638,1692 665,1677C693,1661 776,1613 850,1570C924,1527 1008,1480 1035,1465C1063,1450 1090,1434 1095,1430C1101,1426 1125,1411 1150,1397C1175,1383 1263,1333 1345,1285C1428,1237 1513,1188 1536,1175C1613,1132 2315,727 2410,671C2462,641 2520,607 2538,598C2597,565 3214,209 3272,174C3303,155 3331,140 3335,140C3339,140 3354,132 3368,121C3383,111 3416,91 3441,78L3487,52L3601,117C3778,218 3762,209 4151,433C4308,523 4456,609 4481,622C4505,636 4656,723 4815,815C4975,907 5125,994 5150,1007C5175,1021 5220,1047 5250,1065C5280,1083 5445,1178 5615,1275C5786,1373 5995,1494 6080,1543C6165,1592 6260,1646 6290,1663C6320,1679 6352,1698 6360,1704C6368,1711 6389,1722 6405,1730C6422,1738 6447,1753 6463,1763L6490,1781L6490,5209L6423,5248C6385,5270 6337,5298 6315,5310C6293,5323 6263,5340 6248,5349C6233,5358 6066,5455 5878,5564C5689,5674 5421,5830 5281,5912C5141,5993 5025,6060 5022,6060C5019,6060 5009,6066 5001,6074C4992,6081 4960,6101 4930,6117C4854,6158 4820,6178 4711,6244C4660,6275 4615,6300 4613,6300C4611,6300 4575,6320 4534,6345C4494,6370 4458,6390 4456,6390C4453,6390 4431,6404 4407,6420C4382,6437 4359,6450 4356,6450C4352,6450 4333,6461 4312,6473C4292,6486 4255,6508 4230,6522C4205,6536 4075,6612 3940,6690C3805,6768 3675,6844 3650,6858C3625,6871 3579,6898 3547,6916C3515,6935 3488,6950 3487,6949C3486,6949 3449,6927 3405,6901ZM3592,6379C3649,6345 3709,6310 3725,6300C3791,6262 5049,5519 5255,5396C5376,5324 5484,5261 5495,5255C5568,5219 5760,5096 5753,5090C5749,5086 5581,4984 5380,4865C5179,4745 4999,4638 4980,4625C4924,4589 4804,4520 4797,4520C4794,4520 4769,4533 4742,4549C4716,4564 4674,4588 4649,4602C4600,4630 4060,4941 3965,4996C3932,5016 3898,5035 3890,5040C3882,5045 3788,5099 3682,5160L3489,5271L3377,5209C3315,5174 3237,5129 3202,5108C3168,5087 3138,5070 3136,5070C3134,5070 3081,5040 3019,5004C2956,4968 2880,4924 2850,4907C2820,4891 2738,4844 2668,4804C2598,4763 2525,4721 2506,4710C2486,4699 2453,4681 2433,4669C2413,4657 2345,4619 2284,4584L2171,4519L1937,4654C1808,4728 1685,4798 1664,4809C1643,4821 1618,4835 1610,4840C1602,4845 1555,4872 1505,4900C1456,4928 1408,4955 1400,4960C1392,4965 1349,4990 1305,5014C1261,5039 1217,5065 1208,5072C1192,5083 1254,5123 1721,5400C2014,5573 2269,5725 2289,5737C2309,5749 2336,5765 2350,5773C2364,5780 2476,5846 2600,5920C2952,6128 3481,6439 3487,6440C3488,6440 3535,6412 3592,6379ZM3488,4258C3488,3970 3487,3725 3484,3713C3482,3700 3474,3690 3468,3690C3462,3690 3449,3684 3441,3676C3432,3669 3400,3649 3370,3633C3340,3617 3218,3549 3100,3483C2982,3417 2856,3347 2820,3328C2784,3308 2735,3281 2710,3268C2685,3254 2634,3226 2595,3205C2557,3184 2502,3154 2473,3139C2444,3123 2417,3110 2413,3110C2408,3110 2404,3339 2404,3619L2404,4127L2630,4264C2754,4339 2995,4486 3165,4590C3336,4694 3478,4779 3481,4779C3484,4780 3487,4545 3488,4258ZM6037,3375L6036,2020L5681,1814C5485,1700 5305,1596 5280,1582C5255,1568 5224,1550 5210,1541C5196,1531 5174,1519 5160,1512C5146,1506 5117,1489 5095,1476C5073,1462 5044,1445 5030,1437C5016,1430 4877,1349 4720,1258C4563,1167 4350,1043 4245,983C4141,922 4010,847 3955,815C3843,750 3805,728 3743,693L3700,669L3700,1858L3787,1909C3836,1937 3882,1965 3890,1970C3898,1975 3934,1996 3970,2016C4006,2036 4060,2068 4090,2086C4120,2104 4300,2208 4490,2318C4680,2428 4859,2532 4888,2549C4917,2566 4943,2580 4946,2580C4949,2580 4966,2590 4983,2603L5016,2625L5015,3384C5015,4123 5015,4144 5034,4162C5045,4172 5057,4180 5061,4180C5065,4180 5101,4199 5142,4223C5182,4247 5240,4280 5270,4297C5300,4313 5395,4367 5480,4415C5565,4463 5655,4514 5680,4528C5705,4541 5754,4569 5790,4590C5826,4610 5891,4646 5935,4670C5979,4693 6019,4717 6025,4721C6030,4726 6035,4730 6036,4730C6037,4730 6038,4120 6037,3375ZM3891,3260C3998,3199 4096,3143 4110,3135C4124,3127 4240,3061 4368,2988C4495,2916 4600,2854 4600,2851C4600,2848 4561,2823 4513,2795C4465,2768 4407,2734 4383,2720C4360,2706 4283,2662 4213,2621C4143,2580 3958,2473 3802,2382L3519,2218L3472,2242C3446,2256 3393,2286 3353,2308C3267,2358 3255,2364 3025,2493C2926,2548 2823,2606 2797,2622C2771,2637 2747,2650 2745,2650C2741,2650 2588,2740 2581,2746C2579,2748 2585,2753 2595,2756C2605,2760 2651,2786 2699,2813C2746,2840 2799,2870 2815,2880C2832,2889 2895,2925 2955,2960C3016,2994 3085,3034 3110,3048C3135,3062 3198,3098 3250,3128C3302,3158 3368,3195 3395,3210C3423,3225 3497,3267 3560,3304C3623,3340 3680,3370 3686,3370C3693,3370 3785,3320 3891,3260Z" style="fill:white;fill-rule:nonzero;"/>
    </g>
</svg>
