<?xml version="1.0" standalone="no"?>
<!DOCTYPE svg PUBLIC "-//W3C//DTD SVG 20010904//EN"
 "http://www.w3.org/TR/2001/REC-SVG-20010904/DTD/svg10.dtd">
<svg version="1.0" xmlns="http://www.w3.org/2000/svg"
 width="700.000000pt" height="700.000000pt" viewBox="0 0 700.000000 700.000000"
 preserveAspectRatio="xMidYMid meet">
<metadata>
Created by potrace 1.14, written by Peter Selinger 2001-2017
</metadata>
<g transform="translate(0.000000,700.000000) scale(0.100000,-0.100000)"
fill="#000000" stroke="none">
<path d="M3405 6901 c-44 -26 -177 -105 -295 -176 -118 -70 -228 -135 -245
-145 -24 -14 -570 -337 -625 -370 -62 -37 -281 -167 -308 -182 -39 -22 -251
-147 -442 -262 -74 -44 -151 -90 -171 -101 -29 -16 -260 -152 -367 -216 -15
-9 -120 -71 -234 -139 l-208 -122 0 -1712 0 -1711 53 -30 c28 -16 75 -43 102
-58 28 -16 111 -64 185 -107 74 -43 158 -90 185 -105 28 -15 55 -31 60 -35 6
-4 30 -19 55 -33 25 -14 113 -64 195 -112 83 -48 168 -97 191 -110 77 -43 779
-448 874 -504 52 -30 110 -64 128 -73 59 -33 676 -389 734 -424 31 -19 59 -34
63 -34 4 0 19 -8 33 -19 15 -10 48 -30 73 -43 l46 -26 114 65 c177 101 161 92
550 316 157 90 305 176 330 189 24 14 175 101 334 193 160 92 310 179 335 192
25 14 70 40 100 58 30 18 195 113 365 210 171 98 380 219 465 268 85 49 180
103 210 120 30 16 62 35 70 41 8 7 29 18 45 26 17 8 42 23 58 33 l27 18 0
1714 0 1714 -67 39 c-38 22 -86 50 -108 62 -22 13 -52 30 -67 39 -15 9 -182
106 -370 215 -189 110 -457 266 -597 348 -140 81 -256 148 -259 148 -3 0 -13
6 -21 14 -9 7 -41 27 -71 43 -76 41 -110 61 -219 127 -51 31 -96 56 -98 56 -2
0 -38 20 -79 45 -40 25 -76 45 -78 45 -3 0 -25 14 -49 30 -25 17 -48 30 -51
30 -4 0 -23 11 -44 23 -20 13 -57 35 -82 49 -25 14 -155 90 -290 168 -135 78
-265 154 -290 168 -25 13 -71 40 -103 58 -32 19 -59 34 -60 33 -1 0 -38 -22
-82 -48z m187 -522 c57 -34 117 -69 133 -79 66 -38 1324 -781 1530 -904 121
-72 229 -135 240 -141 73 -36 265 -159 258 -165 -4 -4 -172 -106 -373 -225
-201 -120 -381 -227 -400 -240 -56 -36 -176 -105 -183 -105 -3 0 -28 13 -55
29 -26 15 -68 39 -93 53 -49 28 -589 339 -684 394 -33 20 -67 39 -75 44 -8 5
-102 59 -208 120 l-193 111 -112 -62 c-62 -35 -140 -80 -175 -101 -34 -21 -64
-38 -66 -38 -2 0 -55 -30 -117 -66 -63 -36 -139 -80 -169 -97 -30 -16 -112
-63 -182 -103 -70 -41 -143 -83 -162 -94 -20 -11 -53 -29 -73 -41 -20 -12 -88
-50 -149 -85 l-113 -65 -234 135 c-129 74 -252 144 -273 155 -21 12 -46 26
-54 31 -8 5 -55 32 -105 60 -49 28 -97 55 -105 60 -8 5 -51 30 -95 54 -44 25
-88 51 -97 58 -16 11 46 51 513 328 293 173 548 325 568 337 20 12 47 28 61
36 14 7 126 73 250 147 352 208 881 519 887 520 1 0 48 -28 105 -61z m-104
-2121 c0 -288 -1 -533 -4 -545 -2 -13 -10 -23 -16 -23 -6 0 -19 -6 -27 -14 -9
-7 -41 -27 -71 -43 -30 -16 -152 -84 -270 -150 -118 -66 -244 -136 -280 -155
-36 -20 -85 -47 -110 -60 -25 -14 -76 -42 -115 -63 -38 -21 -93 -51 -122 -66
-29 -16 -56 -29 -60 -29 -5 0 -9 229 -9 509 l0 508 226 137 c124 75 365 222
535 326 171 104 313 189 316 189 3 1 6 -234 7 -521z m2549 -883 l-1 -1355
-355 -206 c-196 -114 -376 -218 -401 -232 -25 -14 -56 -32 -70 -41 -14 -10
-36 -22 -50 -29 -14 -6 -43 -23 -65 -36 -22 -14 -51 -31 -65 -39 -14 -7 -153
-88 -310 -179 -157 -91 -370 -215 -475 -275 -104 -61 -235 -136 -290 -168
-112 -65 -150 -87 -212 -122 l-43 -24 0 594 0 595 87 51 c49 28 95 56 103 61
8 5 44 26 80 46 36 20 90 52 120 70 30 18 210 122 400 232 190 110 369 214
398 231 29 17 55 31 58 31 3 0 20 10 37 23 l33 22 -1 759 c0 739 0 760 19 778
11 10 23 18 27 18 4 0 40 19 81 43 40 24 98 57 128 74 30 16 125 70 210 118
85 48 175 99 200 113 25 13 74 41 110 62 36 20 101 56 145 80 44 23 84 47 90
51 5 5 10 9 11 9 1 0 2 -610 1 -1355z m-2146 -115 c107 -61 205 -117 219 -125
14 -8 130 -74 258 -147 127 -72 232 -134 232 -137 0 -3 -39 -28 -87 -56 -48
-27 -106 -61 -130 -75 -23 -14 -100 -58 -170 -99 -70 -41 -255 -148 -411 -239
l-283 -164 -47 24 c-26 14 -79 44 -119 66 -86 50 -98 56 -328 185 -99 55 -202
113 -228 129 -26 15 -50 28 -52 28 -4 0 -157 90 -164 96 -2 2 4 7 14 10 10 4
56 30 104 57 47 27 100 57 116 67 17 9 80 45 140 80 61 34 130 74 155 88 25
14 88 50 140 80 52 30 118 67 145 82 28 15 102 57 165 94 63 36 120 66 126 66
7 0 99 -50 205 -110z"/>
</g>
</svg>
