<?xml version="1.0" encoding="UTF-8" standalone="no"?><!DOCTYPE svg PUBLIC "-//W3C//DTD SVG 1.1//EN" "http://www.w3.org/Graphics/SVG/1.1/DTD/svg11.dtd"><svg viewBox="0 0 2000 770" xmlns="http://www.w3.org/2000/svg" xml:space="preserve" style="fill-rule:evenodd;clip-rule:evenodd;stroke-linejoin:round;stroke-miterlimit:2"><path d="M799 1444c0-12 12-8 12-12 0-2-5-2-6-2l-16 1-13-1c-1 0-4 0-4 2 0 5 14 1 14 11v57c0 27 8 52 53 52 50 0 48-42 48-50v-53c0-16 10-13 10-17l-2-2-10 1-20-1-2 2c0 6 16-1 16 17v55c0 20-7 41-39 41-23 0-41-12-41-40v-61Zm188 83c0 23-15 16-15 22 0 1 0 2 2 2l16-1 17 1c2 0 2-1 2-3 0-4-15 2-15-13v-70l1-4c2 0 4 3 4 3l73 83c3 4 6 5 7 5l1-8v-99c0-12 10-9 10-13 0-2 0-2-2-2l-17 1-15-1c-1 0-2 0-2 2 0 5 19-1 19 21v72l-1 2-2-2-81-91c-1-1-2-4-5-4l-8 1-8-1-2 2c0 6 21-4 21 31v64Zm198 5c0 17-14 12-14 16 0 2 1 3 4 3l16-1 19 1c3 0 4-1 4-2 0-5-16-1-16-13v-91c0-13 12-9 12-13 0-2 0-2-3-2l-16 1-18-1c-2 0-2 0-2 2 0 4 14 0 14 13v87Zm156 11c1 3 3 11 6 11s4-6 6-10l43-101c4-11 9-7 9-11 0-1-1-2-3-2l-13 1-12-1c-1 0-2 0-2 2 0 4 11 1 11 8 1 4-1 10-2 13l-30 72c-1 2-1 5-3 5s-3-3-7-13l-30-70-1-7c0-6 7-6 6-8l-1-2-14 1-16-1c-2 0-2 1-2 2 0 4 9 1 13 11l42 100Zm162-95c0-12-1-11 16-11 7 0 24-1 29 5 3 4 0 12 4 12 1 0 3-1 3-20 0-2 0-4-2-4l-24 1-48-1c-5 0-6 1-6 2 0 2 4 2 5 3 9 1 9 9 9 17v78c0 7 0 13-4 15-6 3-8 2-8 4 0 1 1 2 3 2l20-1 39 1c8 0 12 0 17-6 4-4 9-10 9-16l-1-2c-3 0-9 17-48 17-14 0-13-4-13-14v-32c0-2-1-5 3-5h25c14 0 9 15 14 15l2-2v-31c0-2-1-3-2-3-4 0 0 14-17 14h-18c-8 0-7 0-7-6v-32Zm191 41c12-5 22-16 22-30 0-33-38-29-41-29l-28 1-11-1c-2 0-3 1-3 2 0 6 14-1 14 15v87c0 13-12 11-12 15l1 2 20-1 19 1 4-1c0-6-18-1-18-16v-36c0-2-1-4 4-4 19 0 16-1 23 8l19 30c6 10 13 19 26 19 1 0 11 0 11-2 0-4-9 2-21-17l-29-43Zm-33-47c0-7 4-6 10-6 17 0 32 6 32 27 0 22-16 25-24 25s-18 0-18-2v-44Zm157 101c1 3 17 9 29 9 39 0 49-21 49-36 0-47-69-28-69-60 0-16 14-22 28-22 15 0 27 7 32 22l3 5c2 0 2-1 2-2l-2-24c0-2-1-2-2-2l-4 1c-2 0-8-6-28-6s-38 11-38 33c0 44 69 26 69 58 0 18-15 27-32 27-23 0-34-17-36-25-1-4-1-6-3-6s-2 2-2 6l4 22Zm170-11c0 17-13 12-13 16 0 2 0 3 3 3l17-1 18 1c3 0 4-1 4-2 0-5-15-1-15-13v-91c0-13 12-9 12-13 0-2-1-2-4-2l-15 1-19-1c-1 0-2 0-2 2 0 4 14 0 14 13v87Zm150 4c0 10-14 8-14 12 0 2 0 3 2 3l23-1 14 1c2 0 2-2 2-2 0-5-14 0-14-14v-87c0-10-1-9 7-9h24c18 0 8 14 15 14 2 0 2-2 2-4l-1-14c0-4-1-5-5-5l-50 1-48-1c-4 0-4 4-4 6l-2 17 2 2c2 0 2-2 3-4 3-9 3-12 14-12h28c3 1 2 7 2 8v89Zm170-50c2 2 4 6 4 9v41c0 12-13 8-13 13 0 2 1 2 3 2l15-1 18 1c3 0 4 0 4-2 0-5-14-1-14-16v-41c0-2 2-4 5-8l24-37c2-4 4-9 9-12 1-1 4-1 4-3l-2-2-15 1-12-1c-2 0-3 0-3 2 0 4 12 1 12 10 0 4-2 7-4 9l-17 29-3 3-4-3-20-33-3-7c0-5 8-6 8-8s-2-2-4-2l-11 1-20-1-2 2c0 4 8 2 12 8l29 46Zm-320-513a31 31 0 0 1 0 62c-18 0-31-14-31-31s13-31 30-31h1Zm296 332c-1 13-8 22-34 30-20 6-17 17 3 18 55-8 73-7 123-2 19 0 16-12 4-18-29-11-34-11-40-40l-2-291c0-17 6-37-11-32l-66 25c-17 7-11 14 1 18 16 7 17 16 19 28l3 264Zm-170-2c-2 14-9 23-34 30-20 6-18 17 3 18 55-8 72-6 122-1 19-1 16-13 4-19-29-11-33-11-39-40l-2-291c0-17 6-36-12-32-34 13-36 15-66 25-16 7-10 15 1 18 17 7 18 17 19 28l4 264Zm-156-115c-1-15-3-26-20-31-13-1-19-12-1-19 34-10 39-12 66-34 8-5 18-1 13 14-2 11-2 16-2 29v151c1 25 21 29 33 34s13 19-2 19c-53-7-65-8-117 3-17 0-21-13 1-21 21-7 28-11 29-29v-116Zm-477-27c12-130 95-184 212-193 123 1 141 9 139 77 0 25-16 31-27 3-14-25-24-40-55-53-107-24-185 44-190 160-7 163 175 211 213 150 8-16 8-58 8-93-7-23-29-20-50-22-24 2-32-24-1-24 30 0 88 3 162-4 22 1 23 21-4 24-11 2-35 2-39 21-2 100 21 109-54 136-96 23-199 13-257-43-26-24-59-77-57-139Zm-246 66c10-107 99-133 145-133 55 1 72 20 73 38 0 18-13 27-27 23-30-7-24-39-63-41-45 6-73 57-65 117 7 60 66 106 137 69 18-4 19 10 5 20-131 81-211-34-205-93Zm-406-181c-2-36-14-26-42-36-23-5-25-21-2-23 40 4 61 4 94-1 16 3 23 9 28 24l98 209c5 11 8 13 14-1l83-213c10-18 20-22 49-20 51 1 63 0 88-3 21 1 19 17-2 23-32 0-49 11-54 36l4 244c6 37 25 38 59 47 15 7 11 17-1 21-72-8-96-8-167-1-20 2-21-15 1-20 25-6 32-11 38-24l-5-236c-1-10-7-10-10 1l-100 249c-9 21-13 21-24 5l-118-255c-3-9-8-6-8-1l1 225c3 26 22 28 59 39 10 4 10 12 2 18-72-6-84-6-150 3-11 0-15-16 1-18 35-10 45-11 50-31l14-261Z" style="fill:#f50000" transform="matrix(.46109 0 0 .46109 424 27)"/><path d="M124 1225c-23-80-10-155-10-245 80-40 161-44 247-44 75 0 181 10 244 44 7 84 11 159-12 256-21 96-84 229-229 328a549 549 0 0 1-240-339Z" style="fill:#fff" transform="matrix(.46109 0 0 .46109 424 27)"/><path d="M130 1225c-21-77-8-149-8-237 78-38 155-42 238-42 73 0 176 9 238 42 6 82 9 154-12 248-21 93-82 223-222 318a531 531 0 0 1-234-329Z" style="fill:#f50000" transform="matrix(.46109 0 0 .46109 424 27)"/><path d="m204 1111-75 82c17 79 63 243 235 355a516 516 0 0 0 224-356l-73-81-81 82-74-82-75 81-81-81Zm34-82s-2-2 0-2 6 0 10 5c2-1 6-7 11-5l-17 36c-6-3-45-6-41-6s-35 1-40 6l-17-37c5-2 9 5 11 5 4-5 8-5 8-5 4 1 2 1 2 3-19 14 8 31 14 14 24 3 17-16 11-19-4-1-2-2 0-2 2-1 5-1 5 1 0-11 1-17 6-21 6 4 7 10 6 21 1-2 4-1 6-1 0 1 4 1 0 3-6 2-12 22 12 18 5 17 33-2 13-14Zm-15 19 7 8-14-2 7-6Zm-22-9 9 15h-17l8-15Zm-21 9-6 8 13-2-7-6Z" style="fill:#fff" transform="matrix(.46109 0 0 .46109 424 27)"/><path d="m170 1081-7-14c7-5 31-6 40-6 12 0 31 2 37 6l-6 15c-10-4-24-5-33-5-11 0-23 1-31 4Zm61-13c2 0 4 3 4 4 0 3-2 5-4 5s-5-2-5-5c0-1 3-4 5-4Zm-14-2c2 0 4 2 4 4s-2 4-4 4-5-2-5-4 3-4 5-4Zm-16-2c3 0 5 2 5 4 0 3-2 5-5 5-1 0-4-2-4-5 0-2 3-4 4-4Zm-15 2c3 0 5 2 5 4s-2 4-5 4c-2 0-4-2-4-4s2-4 4-4Zm-13 2c2 0 5 3 5 4 0 3-3 5-5 5s-5-2-5-5c0-1 3-4 5-4Z" style="fill:#fff" transform="matrix(.46109 0 0 .46109 424 27)"/><path d="M202 1080c17 0 32 3 32 5s-13 3-31 3c-17 0-31-1-31-3s13-5 30-5Zm356-51s-2-2 0-2 6 0 10 5c2-1 6-7 11-5l-17 36c-6-3-45-6-41-6 3 0-35 1-41 6l-17-37c5-2 10 5 12 5 3-5 7-5 8-5 4 1 1 1 1 3-18 14 8 31 14 14 24 3 17-16 12-19-5-1-1-2 0-2 2-1 5-1 5 1 0-11 0-17 6-21 6 4 6 10 6 21 0-2 3-1 6-1 1 1 4 1 1 3-7 2-13 22 10 18 6 17 34-2 14-14Zm-16 19 8 8-14-2 6-6Zm-21-9 8 15h-16l8-15Zm-21 9-7 8 14-2-7-6Z" style="fill:#fff" transform="matrix(.46109 0 0 .46109 424 27)"/><path d="m490 1081-7-14c6-5 30-6 39-6 14 0 31 2 37 6l-5 15c-10-4-24-5-33-5-10 0-23 1-31 4Zm60-13c2 0 5 3 5 4 0 3-3 5-5 5s-4-2-4-5c0-1 2-4 4-4Zm-14-2c2 0 5 2 5 4s-3 4-5 4-4-2-4-4 2-4 4-4Zm-15-2c2 0 4 2 4 4 0 3-2 5-4 5s-4-2-4-5c0-2 2-4 4-4Zm-15 2c3 0 5 2 5 4s-2 4-5 4c-1 0-4-2-4-4s3-4 4-4Zm-14 2c2 0 5 3 5 4 0 3-3 5-5 5s-4-2-4-5c0-1 2-4 4-4Z" style="fill:#fff" transform="matrix(.46109 0 0 .46109 424 27)"/><path d="M521 1080c17 0 33 3 33 5s-14 3-31 3-32-1-32-3 14-5 30-5Z" style="fill:#fff" transform="matrix(.46109 0 0 .46109 424 27)"/><path d="m194 1262 4-12c-1-2-3-5-6-5 2-3 6-6 5-8-1-3-3-2-7-4 1-4 5-6 6-6 3 0 3-4 8-6 4-2 9-2 13-2 8 0 27 6 22 29 11 23 51-8 65-8l-9 15c4 3 9 0 13 0-4 13-12 18-18 23 6 21 30 13 51 10-2 7-11 8-15 14 7 7 15 17 20 27-9-6-29-13-36-15-12-5-38-5-51 0 3 5 8 7 12 10-6 13-20 5-27 3-7 5-19 5-22 2 0 0 0-3 3-6s-7-4-10-9c0-4 6 0 8-5-6-13-33-16-29-47Zm18-36c1 0 2 1 2 3l-2 2-3-2c0-2 2-3 3-3Zm163 40c1-2 3-10 5-12-2-3-4-6-6-6 1-2 6-6 4-8 0-2-2-1-6-4 1-3 4-5 6-5 3 0 3-4 7-7l14-2c7 1 27 6 21 29 12 23 52-8 66-8l-9 15c3 3 9 0 13 0-4 13-12 19-18 24 6 20 30 12 51 9-2 8-11 9-16 14 8 7 16 17 21 28-9-6-30-13-36-16-13-5-39-5-51 0 2 5 8 8 11 10-7 14-19 6-26 4-8 4-19 4-23 2 0 0 0-4 4-6 2-4-7-5-10-10 0-5 4 0 8-5-7-12-33-15-30-46Zm18-36c2 0 2 1 2 2s0 3-2 3-2-2-2-3 0-2 2-2Zm-105 165 6-13c-2-2-5-5-7-5 1-3 5-5 5-7-1-3-3-2-8-5 2-3 5-5 8-5 2 0 2-4 6-7 4-2 10-2 14-2 7 0 26 6 21 29 11 23 52-8 66-8l-9 16c4 3 9 0 13 0-4 12-12 17-18 23 6 20 30 13 51 10-2 7-11 7-15 13 7 8 15 17 20 28-9-6-29-13-36-15-12-5-38-5-51 0 2 4 7 7 12 10-7 12-20 5-28 2-6 6-18 6-22 3 0 0 0-3 4-6 3-4-7-5-10-9 0-5 5 0 8-5-7-14-34-16-30-47Zm19-36c1 0 2 1 2 3l-2 2c-2 0-3-2-3-2 0-2 1-3 3-3Z" style="fill:#f50000" transform="matrix(.46109 0 0 .46109 424 27)"/><path d="M306 979s12 5 22 1c11-5 22-7 30-3v97c-6-2-16-1-27 2-10 2-16 2-25 0v-97Zm33 72c0-3 2-4 4-4 1 0 3 1 3 4 0 5-2 6-3 6-2 0-4-1-4-6Zm-3 0c0 7 5 8 7 8 1 0 6-1 6-8 0-6-5-6-6-6-2 0-7 0-7 6Zm-5 4-5-10h-3v14h2v-10l6 10h2v-14h-2v10Zm-14 5h3v-13h-3v13Zm34-44h-4l-2 11-3-11h-4v14h3v-11l2 11h3l3-11v11h2v-14Zm-24 9c0-5 2-5 3-5s3 0 3 5c0 3-2 4-3 4s-3-1-3-4Zm-3 0c0 6 4 6 6 6 1 0 6 0 6-6 0-7-5-7-6-7-2 0-6 0-6 7Zm-10-4h2c2 0 3 1 3 5 0 2-1 4-3 4h-2v-9Zm-3 12h5c5 0 6-5 6-7 0-3-1-7-5-7h-6v14Zm25-32-5-10h-3v13h2v-8l5 8h3v-13h-2v10Zm-15 4h3v-13h-3v13Zm-17-26-10 8v98l10-9v-97Z" style="fill:#fff" transform="matrix(.46109 0 0 .46109 424 27)"/><path d="m297 1087 9-8c7 2 21-1 28-2 11-1 16-4 24 0-4 2-7 6-7 10h-54Zm125 0-9-8c-8 2-21-1-28-2-12-1-16-4-23 0 4 2 6 6 6 10h54Zm-6-109 8 9v97l-8-8v-98Z" style="fill:#fff" transform="matrix(.46109 0 0 .46109 424 27)"/><path d="M412 979s-11 5-21 1c-12-5-22-7-29-3v97c6-2 14-1 25 2 11 2 17 2 25 0v-97Zm-39 79h5c5 0 6-4 6-7 0-2-1-6-6-6h-5v13Zm3-11h2c2 0 3 1 3 4s-1 5-3 5h-2v-9Zm11 7c0 6 5 7 7 7 1 0 6-1 6-7 0-7-5-7-6-7-2 0-7 0-7 7Zm4 0c0-4 1-5 3-5 1 0 3 1 3 5s-2 4-3 4c-2 0-3 0-3-4Zm-11-27h6v-2h-6v-3h7v-2h-10v13h3v-6Zm10 6h3v-13h-3v13Zm-12-37c0-2-2-5-6-5s-6 3-6 7c0 5 2 8 6 8 3 0 5-2 6-5h-3c-1 1-1 2-3 2s-3-2-3-5 2-4 3-4c2 0 2 2 3 2h3Zm2 4c0 6 5 7 7 7 1 0 6-1 6-7s-5-6-6-6c-2 0-7 0-7 6Zm3 0c0-4 2-4 4-4 1 0 3 0 3 4s-2 5-3 5c-2 0-4-1-4-5Zm20 3-5-9h-3v13h2v-9l6 9h2v-13h-2v9Zm-43 76c-4 4-6 4-4 8h8c0-4 0-6-4-8Z" style="fill:#fff" transform="matrix(.46109 0 0 .46109 424 27)"/><g><path d="m164 4-2 33h-15l-1-11-1-4-5-1h-14v80l4 2 9 1v15H89v-15l9-1 4-2 1-4V21H88l-5 1-1 4-1 11H66L64 4h100ZM217 121c-16 0-29-5-37-15-9-10-13-23-13-40 0-13 2-24 7-34 4-9 11-17 20-22 8-5 18-8 30-8s24 3 35 10l-2 31h-17l-3-18a47 47 0 0 0-19-4c-10 0-17 3-20 9-4 6-6 15-6 27 0 30 11 45 32 45 8 0 15-2 21-4l10-4 4 16c-14 7-28 11-42 11ZM304 77v20l1 5 4 1 10 2v14h-49v-14l6-2 4-2 1-4V26l-1-4-4-2-6-2V4h45c14 0 24 2 31 7 6 5 10 13 10 25a40 40 0 0 1-22 36c-6 3-13 5-20 5h-10Zm27-36c0-7-1-12-4-15s-7-5-13-5h-10v39h11c6 0 10-1 13-4 2-3 3-9 3-15ZM451 121c-17 0-30-5-38-15-9-10-13-24-13-41 0-13 2-24 7-33 5-10 12-17 20-22 9-5 20-8 32-8 16 0 29 5 37 15 9 10 13 24 13 41 0 12-2 23-7 33-5 9-12 17-20 22-9 5-19 8-31 8Zm6-19c9 0 16-3 20-8 5-6 7-16 7-29 0-15-3-26-9-33-5-8-13-11-23-11-9 0-16 3-20 8-5 6-7 16-7 29 0 15 3 26 9 33 5 8 13 11 23 11ZM570 40c9 0 16 3 21 10s8 16 8 28c0 8-2 15-5 22-3 6-8 11-14 15a37 37 0 0 1-33 3v21l1 3 3 1 9 1v14h-44v-14l6-1c2 0 4-2 4-4V59c0-1-2-3-4-3l-6-2V41h29l1 8c6-6 14-9 24-9Zm-8 65c5 0 9-2 11-6 3-5 4-11 4-20 0-16-5-24-16-24l-7 2-7 5v40c5 2 9 3 15 3ZM695 106v13h-31V68c0-3-1-6-3-8s-5-3-9-3a19 19 0 0 0-15 6v38a4 4 0 0 0 4 4l6 1v13h-41v-13l6-1c2-1 3-2 3-4V12l-1-2-2-1-6-1V-6h31v54c7-6 15-8 23-8s15 2 19 6c5 5 7 11 7 18v37c0 2 1 3 4 4l5 1ZM739 105l12-1-2 13c-4 3-10 4-18 4-9 0-15-3-18-7s-5-11-5-20V55h-8V43l8-1V30l22-5v16l19-2v16h-19v40c0 3 1 6 3 8s4 2 6 2ZM847 106v13h-31V68c0-3-1-6-3-8-3-2-6-3-10-3a19 19 0 0 0-14 6v38a4 4 0 0 0 3 4l6 1v13h-40v-13l5-1c3-1 4-2 4-4V12l-1-2-3-1-5-1V-6h31v54c7-6 14-8 22-8 9 0 15 2 20 6 4 5 7 11 7 18v37c0 2 1 3 3 4l6 1ZM931 106v13h-28l-1-9c-4 4-8 7-12 8-4 2-9 3-14 3-6 0-12-2-16-6s-6-9-6-16 2-12 7-17c4-4 10-7 18-7l21-2v-9c0-3-1-6-3-7-2-2-5-3-10-3-4 0-8 1-11 3l-2 10h-14l-1-20a92 92 0 0 1 31-7c9 0 17 2 23 6s9 9 9 17v38c0 2 1 3 3 4l6 1Zm-55-9 2 6 6 2 8-2 8-5V85l-16 3c-3 0-5 1-6 3l-2 6ZM938 106l5-1c3-1 4-2 4-4V12a4 4 0 0 0-4-3l-5-1V-6h31v107c0 2 1 3 3 4l6 1v13h-40v-13ZM1121 106v13h-31V69c0-5-1-8-3-9-3-2-5-3-9-3l-7 1c-3 1-5 3-7 6v37l1 3 2 1 7 1v13h-32V69c0-4-1-7-3-9s-5-3-8-3a17 17 0 0 0-14 6v38a4 4 0 0 0 3 4l6 1v13h-40v-13l5-1c3-1 4-2 4-4V59l-1-2-3-1-5-2V41h26l1 10c8-8 16-11 25-11 11 0 19 3 23 11 3-4 7-6 11-8s9-3 13-3c8 0 14 2 19 6s7 10 7 18v37c0 2 2 3 4 4l6 1ZM1165 121c-13 0-22-4-28-11s-10-16-10-27c0-8 2-16 5-22 4-7 9-12 15-16 7-4 15-5 24-5 13 0 22 3 28 10s9 16 9 28c0 8-1 15-5 22-3 6-8 11-14 15-7 4-15 6-24 6Zm5-16c6 0 10-2 12-6 3-4 4-10 4-18 0-17-7-26-21-26-5 0-9 2-12 6-2 4-3 10-3 18 0 17 7 26 20 26ZM1216 106l5-1c3-1 4-2 4-4V12a4 4 0 0 0-4-3l-5-1V-6h31v107c0 2 1 3 3 4l6 1v13h-40v-13ZM1300 121c-13 0-22-4-29-11-6-7-9-16-9-27 0-8 2-16 5-22 4-7 9-12 15-16 7-4 14-5 24-5 12 0 22 3 28 10s9 16 9 28c0 8-1 15-5 22-3 6-8 11-15 15-6 4-14 6-23 6Zm5-16c6 0 10-2 12-6s4-10 4-18c0-17-7-26-21-26-5 0-9 2-12 6-2 4-3 10-3 18 0 17 7 26 20 26ZM1412 112c5 1 9 3 11 6 3 3 4 6 4 11s-2 10-5 15c-4 4-9 8-15 11s-13 4-21 4l-21-2c-6-2-11-4-15-7l4-22h14v10c6 3 15 5 25 5l11-2c3-1 4-3 4-5 0-3-1-5-4-5l-15-3-17-2c-4-1-7-3-9-5-3-3-4-6-4-11l10-13c-6-3-10-6-13-11-4-4-5-10-5-16a29 29 0 0 1 16-26c6-3 13-4 22-4a750 750 0 0 0 27-1l11-3v13l-4 2-5 2 3 8 1 8c0 6-2 11-5 16-3 4-8 8-13 10a45 45 0 0 1-24 4l-2 5 1 3 5 1a593 593 0 0 1 28 4Zm-26-58c-5 0-8 1-10 3s-3 6-3 11c0 11 5 17 14 17 4 0 8-1 9-4 2-2 3-6 3-12s-1-9-3-12c-2-2-6-3-10-3Z" style="fill:#f50000;fill-rule:nonzero" transform="matrix(.98604 0 0 .9781 -29 27)"/><path d="M1515 41v13l-7 1-3 2-2 5-25 73c-4 8-7 14-12 18s-11 6-17 6c-7 0-13-1-18-3l-2-15 15 1c7 0 13-4 16-12l3-8-24-60-3-5-3-2-7-1V41h42v13l-6 1-2 2 1 4 12 33 2 6v-6l9-33 1-4-2-2-6-1V41h38ZM1606 121c-17 0-29-5-38-15-8-10-13-24-13-41 0-13 3-24 8-33 4-10 11-17 20-22s19-8 31-8c17 0 29 5 38 15 8 10 12 24 12 41 0 12-2 23-7 33-5 9-11 17-20 22s-19 8-31 8Zm7-19c9 0 15-3 20-8 4-6 6-16 6-29 0-15-2-26-8-33-6-8-14-11-24-11-9 0-15 3-20 8-4 6-7 16-7 29 0 15 3 26 9 33 6 8 14 11 24 11ZM1762 106v13h-31V68c0-3-1-6-3-8s-5-3-9-3c-6 0-11 2-15 6v38a4 4 0 0 0 4 4l6 1v13h-41v-13l6-1c2-1 4-2 4-4V60c0-2-2-4-4-4l-6-2V41h27l1 10c3-3 7-6 12-8 4-2 9-3 14-3 8 0 15 2 20 6 4 5 6 11 6 18v37c0 2 1 3 4 4l5 1ZM1769 106l6-1c2-1 4-2 4-4V12a4 4 0 0 0-4-3l-6-1V-6h31v107c0 2 1 3 4 4l5 1v13h-40v-13ZM1834 28c-8 0-12-4-12-12 0-9 5-13 13-13s12 4 12 13c0 8-4 12-13 12Zm-17 78 6-1c2-1 3-2 3-4V59l-1-2-2-2-6-1V41h31v60c0 2 1 3 4 4l5 1v13h-40v-13ZM1954 106v13h-31V68c0-3-1-6-3-8s-5-3-9-3c-6 0-11 2-15 6v38a4 4 0 0 0 3 4l7 1v13h-41v-13l6-1c2-1 3-2 3-4V60c0-2-1-4-3-4l-6-2V41h26l2 10c3-3 7-6 12-8 4-2 9-3 14-3 8 0 15 2 19 6 5 5 7 11 7 18v37c0 2 1 3 3 4l6 1ZM2003 105c6 0 15-2 26-5l3 13a127 127 0 0 1-37 8c-10 0-19-4-25-11s-9-16-9-28c0-8 1-16 5-22 3-7 8-12 14-15 6-4 13-5 21-5 11 0 19 3 24 10 5 6 7 17 7 32l-48 4c1 13 7 19 19 19Zm-5-50c-5 0-8 1-10 4-2 2-4 7-5 13l28-2c0-10-4-15-13-15Z" style="fill:#f50000;fill-rule:nonzero" transform="matrix(.98604 0 0 .9781 -29 27)"/></g><g><path d="M151 119H71v-14l6-2 4-2 1-4V26l-1-4-4-2-6-2V4h47v14l-9 2-3 2-1 4v75h22l5-1 1-3 1-13h16l1 35ZM198 105c7 0 15-2 26-5l4 13a127 127 0 0 1-37 8c-11 0-19-4-25-11s-10-16-10-28c0-8 2-16 5-22 4-7 8-12 14-15 6-4 14-5 22-5 11 0 19 3 24 10 5 6 7 17 7 32l-49 4c1 13 8 19 19 19Zm-4-50c-5 0-9 1-11 4-2 2-3 7-4 13l28-2c0-10-5-15-13-15ZM313 106v13h-28l-2-9c-3 4-7 7-11 8-4 2-9 3-14 3-7 0-12-2-16-6s-6-9-6-16 2-12 7-17c4-4 10-7 18-7l21-2v-9c0-3-1-6-3-7-2-2-5-3-10-3-4 0-8 1-11 3l-2 10h-14l-1-20a92 92 0 0 1 31-7c9 0 17 2 23 6s8 9 8 17v38c0 2 2 3 4 4l6 1Zm-55-9c0 3 0 5 2 6l6 2 8-2 8-5V85l-16 3c-3 0-5 1-6 3-2 2-2 4-2 6ZM371 40a23 23 0 0 1 14 4l-2 23h-13l-2-10-4-1c-3 0-5 2-8 4l-5 10v31a4 4 0 0 0 4 4l8 1v13h-42v-13l5-1c3-1 4-2 4-4V59l-1-2-3-1-5-2V41h26l2 13c2-4 5-7 9-10s9-4 13-4ZM478 106v13h-31V68c0-3-1-6-3-8s-5-3-9-3c-6 0-11 2-15 6v38a4 4 0 0 0 3 4l7 1v13h-41v-13l6-1c2-1 3-2 3-4V60c0-2-1-4-3-4l-6-2V41h26l2 10c3-3 7-6 12-8 4-2 9-3 14-3 8 0 15 2 19 6 5 5 7 11 7 18v37c0 2 1 3 3 4l6 1ZM503 28c-8 0-12-4-12-12 0-9 4-13 13-13 8 0 12 4 12 13 0 8-4 12-13 12Zm-17 78 5-1c3-1 4-2 4-4V59l-1-2-3-2-5-1V41h31v60c0 2 1 3 3 4l6 1v13h-40v-13ZM623 106v13h-31V68c0-3-1-6-3-8a19 19 0 0 0-24 4v37a4 4 0 0 0 3 4l6 1v13h-40v-13l5-1c3-1 4-2 4-4V60c0-2-1-4-3-4l-6-2V41h26l1 10 12-8c5-2 9-3 14-3 9 0 15 2 20 6 4 5 7 11 7 18v37c0 2 1 3 3 4l6 1ZM691 112c5 1 9 3 11 6 3 3 4 6 4 11s-2 10-5 15c-3 4-8 8-15 11-6 3-13 4-21 4l-20-2c-7-2-12-4-15-7l3-22h14v10c7 3 15 5 25 5l11-2c3-1 4-3 4-5 0-3-1-5-4-5l-15-3-17-2c-4-1-7-3-9-5-2-3-3-6-3-11l9-13c-5-3-10-6-13-11-4-4-5-10-5-16a29 29 0 0 1 17-26c5-3 12-4 21-4a750 750 0 0 0 28-1l10-3v13l-4 2-5 2c2 2 3 5 3 8l1 8c0 6-1 11-5 16-3 4-7 8-13 10a45 45 0 0 1-23 4l-3 5 1 3 5 1a584 584 0 0 1 28 4Zm-26-58c-5 0-8 1-10 3l-2 11c0 11 4 17 13 17 5 0 8-1 10-4l2-12c0-6-1-9-3-12-2-2-5-3-10-3ZM786 77v20l1 5 4 1 11 2v14h-49v-14l5-2 4-2 1-4V26l-1-4-4-2-5-2V4h44c14 0 24 2 31 7s10 13 10 25a40 40 0 0 1-21 36c-7 3-14 5-21 5h-10Zm28-36c0-7-2-12-5-15s-7-5-13-5h-10v39h11c6 0 10-1 13-4 2-3 4-9 4-15ZM843 106l6-1c2-1 4-2 4-4V12a4 4 0 0 0-4-3l-6-1V-6h31v107c0 2 1 3 4 4l5 1v13h-40v-13ZM967 106v13h-27l-2-9c-4 4-7 7-11 8-4 2-9 3-14 3-7 0-12-2-16-6s-6-9-6-16 2-12 6-17c5-4 11-7 19-7l21-2v-9c0-3-1-6-3-7-2-2-6-3-10-3s-8 1-11 3l-3 10h-13l-2-20a92 92 0 0 1 32-7c9 0 17 2 22 6 6 4 9 9 9 17v38c0 2 1 3 4 4l5 1Zm-55-9c0 3 1 5 3 6l5 2 9-2 8-5V85l-16 3c-3 0-5 1-6 3l-3 6ZM1012 105l11-1-2 13c-4 3-10 4-18 4s-14-3-18-7c-3-4-5-11-5-20V55h-8V43l8-1V30l22-5v16l19-2v16h-19v40c0 3 1 6 3 8s4 2 7 2ZM1070 9c-2 0-4 0-6 2s-3 4-3 7v23l19-2v17h-19v45l2 3 3 1 9 1v13h-45v-13l6-1 3-1 1-3V56h-10V43l10-1V26c0-11 3-19 9-25 6-5 14-8 25-8l10 1 9 3-6 16a56 56 0 0 0-17-4ZM1123 121c-13 0-22-4-28-11-7-7-10-16-10-27 0-8 2-16 5-22 4-7 9-12 15-16 7-4 14-5 24-5 13 0 22 3 28 10s9 16 9 28c0 8-1 15-5 22-3 6-8 11-15 15-6 4-14 6-23 6Zm5-16c6 0 10-2 12-6s4-10 4-18c0-17-7-26-21-26-5 0-9 2-12 6-2 4-3 10-3 18 0 17 7 26 20 26ZM1225 40a23 23 0 0 1 13 4l-1 23h-13l-2-10-4-1c-3 0-6 2-8 4l-5 10v31a4 4 0 0 0 4 4l8 1v13h-42v-13l5-1c2-1 3-2 3-4V57l-3-1-6-2V41h27l2 13c2-4 5-7 9-10s8-4 13-4ZM1378 106v13h-31V69c0-5-1-8-3-9-2-2-5-3-9-3l-7 1-7 6v37l1 3 3 1 6 1v13h-32V69c0-4-1-7-3-9s-5-3-8-3a17 17 0 0 0-14 6v38a4 4 0 0 0 3 4l6 1v13h-40v-13l5-1c3-1 4-2 4-4V59l-1-2-3-1-5-2V41h26l2 10c7-8 15-11 24-11 11 0 19 3 23 11 3-4 7-6 11-8l13-3c8 0 15 2 19 6 5 4 8 10 8 18v37c0 2 1 3 3 4l6 1Z" style="fill:#f50000;fill-rule:nonzero" transform="matrix(.98604 0 0 .9781 291 240)"/></g></svg>