<svg width="209" height="54" viewBox="0 0 209 54" fill="none" xmlns="http://www.w3.org/2000/svg">
<path fill-rule="evenodd" clip-rule="evenodd" d="M103.493 24.0261C100.308 21.9614 88.7593 10.7643 79.424 5.14195C62.1785 -5.25703 41.4338 2.65239 33.2051 6.81754C19.9963 13.4961 1.85512 26.4084 0 27.6512C5.37031 29.3268 14.3752 36.1761 15.7526 37.3236C17.138 38.475 39.1686 55.4811 57.9706 52.4475C80.1525 48.87 89.3485 33.627 84.9416 20.7305C82.0594 12.2811 71.892 6.89298 61.9357 11.7371C52.7635 16.1881 50.6218 27 54.9133 34.3059C59.2127 41.6118 70.1125 46.1581 78.1819 38.3996C86.108 30.7681 81.92 23.6211 80.678 21.8502C80.7974 22.2115 80.8969 22.5847 80.9766 22.9659C81.2512 23.9427 81.4742 25.3681 81.291 27.2542C81.096 29.3427 80.1804 31.2009 78.8428 32.6978C76.92 35.1914 74.0338 36.7756 70.7973 36.7756C65.0209 36.7756 60.3393 31.725 60.3393 25.4952C60.3393 19.3527 64.8935 14.3577 70.5584 14.2227C81.3269 14.2227 88.5603 26.0431 81.9559 36.3587C70.7256 53.9048 48.4562 46.2058 40.7411 42.795C30.717 38.3639 19.013 27.6552 19.013 27.6552C19.013 27.6552 25.4263 21.06 38.5157 13.909C51.5971 6.76989 62.3895 5.08239 72.5489 7.30195C82.6963 9.52945 87.8079 16.4939 98.9864 24.7447C110.157 33.0036 118.632 27.4328 118.632 27.4328C112.796 29.2196 106.682 26.0987 103.493 24.0261Z" fill="#144E9C"/>
<path fill-rule="evenodd" clip-rule="evenodd" d="M105.495 49.2829V52.3363C103.453 53.4481 101.096 54 98.421 54C96.2474 54 94.4043 53.5632 92.8915 52.6937C91.3787 51.8241 90.1805 50.625 89.3007 49.1003C88.4169 47.5756 87.979 45.9238 87.979 44.149C87.979 41.3259 88.9862 38.9554 91.0085 37.0337C93.0268 35.1119 95.5189 34.1471 98.4807 34.1471C100.523 34.1471 102.792 34.6791 105.288 35.7432V38.7291C103.015 37.4347 100.79 36.7875 98.6201 36.7875C96.3907 36.7875 94.5436 37.4863 93.0706 38.8879C91.5977 40.2896 90.8652 42.0446 90.8652 44.1529C90.8652 46.2812 91.5897 48.0282 93.0388 49.3981C94.4879 50.7679 96.339 51.4509 98.5922 51.4509C100.945 51.4469 103.25 50.7243 105.495 49.2829Z" fill="#114E9C"/>
<path d="M118.385 33.75C121.419 33.75 123.943 34.695 125.957 36.589C127.976 38.4829 128.983 40.8574 128.983 43.7082C128.983 46.5631 127.964 48.9256 125.929 50.7957C123.895 52.6659 121.327 53.6029 118.23 53.6029C115.272 53.6029 112.808 52.6659 110.842 50.7957C108.871 48.9256 107.888 46.5829 107.888 43.7638C107.888 40.8732 108.879 38.479 110.865 36.589C112.844 34.695 115.352 33.75 118.385 33.75ZM118.497 36.3825C116.252 36.3825 114.405 37.0734 112.959 38.4591C111.514 39.8449 110.79 41.6118 110.79 43.7638C110.79 45.8524 111.514 47.5875 112.963 48.9732C114.412 50.359 116.228 51.0499 118.409 51.0499C120.599 51.0499 122.426 50.3431 123.891 48.9296C125.356 47.516 126.089 45.7571 126.089 43.6526C126.089 41.6038 125.356 39.8766 123.891 38.479C122.426 37.0813 120.631 36.3825 118.497 36.3825Z" fill="#114E9C"/>
<path fill-rule="evenodd" clip-rule="evenodd" d="M137.255 45.6578L135.106 44.3753C133.756 43.5693 132.797 42.7752 132.227 41.9929C131.658 41.2107 131.371 40.3134 131.371 39.2929C131.371 37.7682 131.913 36.5294 132.992 35.5765C134.071 34.6235 135.476 34.1471 137.2 34.1471C138.852 34.1471 140.364 34.5997 141.742 35.509V38.6577C140.317 37.3156 138.784 36.6406 137.144 36.6406C136.22 36.6406 135.46 36.851 134.867 37.2679C134.274 37.6849 133.975 38.2249 133.975 38.876C133.975 39.4557 134.194 39.9997 134.632 40.5079C135.07 41.0122 135.774 41.5482 136.742 42.1041L138.903 43.3588C141.312 44.7724 142.518 46.5671 142.518 48.7509C142.518 50.3034 141.989 51.566 140.926 52.5388C139.867 53.5077 138.485 53.996 136.79 53.996C134.835 53.996 133.059 53.4084 131.455 52.2291V48.7072C132.984 50.6052 134.751 51.5541 136.762 51.5541C137.649 51.5541 138.386 51.3119 138.975 50.8275C139.564 50.3431 139.859 49.7396 139.859 49.009C139.859 47.8337 138.991 46.714 137.255 45.6578Z" fill="#114E9C"/>
<path d="M160.432 53.603V34.1471H166.639C168.506 34.1471 169.999 34.6474 171.109 35.6479C172.22 36.6525 172.777 37.9946 172.777 39.6821C172.777 40.8137 172.495 41.8143 171.921 42.6838C171.352 43.5534 170.572 44.1887 169.581 44.5818C168.589 44.9749 167.168 45.1734 165.321 45.1734H163.247V53.603H160.432ZM166.149 36.6207H163.247V42.6997H166.316C167.455 42.6997 168.335 42.4337 168.952 41.9016C169.569 41.3696 169.875 40.6072 169.875 39.6146C169.875 37.6174 168.633 36.6207 166.149 36.6207Z" fill="#114E9C"/>
<path d="M176.754 53.603V34.1471H181.671C183.657 34.1471 185.23 34.6354 186.396 35.6082C187.563 36.581 188.148 37.9032 188.148 39.5629C188.148 40.6946 187.861 41.6753 187.292 42.5012C186.719 43.3271 185.902 43.9465 184.836 44.3554C185.461 44.7644 186.078 45.3203 186.675 46.0271C187.276 46.7338 188.116 47.9607 189.203 49.7197C189.887 50.8235 190.433 51.6534 190.847 52.2132L191.882 53.603H188.538L187.682 52.3205C187.654 52.2728 187.598 52.1934 187.515 52.0822L186.969 51.3159L186.102 49.8944L185.162 48.3777C184.581 47.5796 184.051 46.9443 183.57 46.4718C183.088 45.9993 182.65 45.6578 182.264 45.4513C181.874 45.2449 181.221 45.1377 180.301 45.1377H179.569V53.603H176.754ZM180.405 36.5175H179.561V42.66H180.628C182.053 42.66 183.028 42.5409 183.558 42.2987C184.087 42.0565 184.501 41.6912 184.796 41.2068C185.09 40.7184 185.238 40.1625 185.238 39.5431C185.238 38.9316 185.074 38.3757 184.744 37.8794C184.418 37.3831 183.956 37.0337 183.363 36.8272C182.769 36.6168 181.782 36.5175 180.405 36.5175Z" fill="#114E9C"/>
<path fill-rule="evenodd" clip-rule="evenodd" d="M209 49.2829V52.3363C206.958 53.4481 204.601 54 201.926 54C199.756 54 197.913 53.5632 196.396 52.6937C194.884 51.8241 193.685 50.625 192.806 49.1003C191.922 47.5756 191.484 45.9238 191.484 44.149C191.484 41.3259 192.491 38.9554 194.513 37.0337C196.532 35.1119 199.024 34.1471 201.986 34.1471C204.028 34.1471 206.297 34.6791 208.793 35.7432V38.7291C206.516 37.4347 204.295 36.7875 202.125 36.7875C199.896 36.7875 198.048 37.4863 196.576 38.8879C195.103 40.2896 194.37 42.0446 194.37 44.1529C194.37 46.2812 195.095 48.0282 196.544 49.3981C197.993 50.7679 199.844 51.4509 202.101 51.4509C204.45 51.4469 206.755 50.7243 209 49.2829Z" fill="#114E9C"/>
</svg>
