<?xml version="1.0" encoding="UTF-8" standalone="no"?>
<!DOCTYPE svg PUBLIC "-//W3C//DTD SVG 1.1//EN" "http://www.w3.org/Graphics/SVG/1.1/DTD/svg11.dtd">
<svg width="100%" height="100%" viewBox="0 0 420 360" version="1.1" xmlns="http://www.w3.org/2000/svg" xmlns:xlink="http://www.w3.org/1999/xlink" xml:space="preserve" xmlns:serif="http://www.serif.com/" style="fill-rule:evenodd;clip-rule:evenodd;stroke-linejoin:round;stroke-miterlimit:2;">
    <g transform="matrix(1,0,0,1,-150,0)">
        <path d="M497.337,275.608C455.772,256.942 409.588,246.359 360.903,246.359C312.218,246.359 266.035,256.75 224.469,275.608L224.469,2.934L497.144,2.934L497.144,275.609L497.337,275.609L497.337,275.608Z" style="fill:rgb(20,30,140);fill-rule:nonzero;"/>
        <g>
            <path d="M256.991,86.064C244.097,86.064 243.136,98.957 243.136,98.957L236.978,98.957L236.978,79.714L284.702,79.714C284.702,79.714 285.087,94.531 271.039,110.31C271.039,110.31 257.569,125.897 257.185,132.825L264.882,132.825C276.042,132.825 277.197,119.932 277.197,119.932L283.547,119.932L283.547,139.175L234.67,139.175C234.67,139.175 232.938,124.55 249.872,106.846C249.872,106.846 260.263,95.301 262.765,86.064L256.991,86.064Z" style="fill:white;fill-rule:nonzero;"/>
            <path d="M378.414,139.368L378.414,132.825L376.875,132.825C374.181,132.825 372.064,130.708 372.064,128.014L372.064,90.875C372.064,88.181 374.18,86.064 376.875,86.064L378.414,86.064L378.414,79.713L346.856,79.713L346.856,86.064L348.395,86.064C351.089,86.064 353.206,88.181 353.206,90.875L353.206,128.207C353.206,130.901 351.09,133.018 348.395,133.018L346.856,133.018L346.856,139.368L378.414,139.368Z" style="fill:white;fill-rule:nonzero;"/>
            <path d="M340.314,139.175L340.314,119.932L333.963,119.932C333.963,119.932 332.809,133.017 321.648,133.017L315.297,133.017L315.297,112.811L317.607,112.811C320.301,112.811 322.418,114.928 322.418,117.622L322.418,119.931L328.769,119.931L328.769,99.148L322.418,99.148L322.418,101.65C322.418,104.344 320.302,106.461 317.607,106.461L315.297,106.461L315.297,86.256L321.648,86.256C332.809,86.256 333.963,99.149 333.963,99.149L340.314,99.149L340.314,79.906L290.089,79.906L290.089,86.256L291.628,86.256C294.322,86.256 296.44,88.373 296.44,91.067L296.44,128.206C296.44,130.9 294.323,133.017 291.628,133.017L290.089,133.017L290.089,139.367L340.314,139.175Z" style="fill:white;fill-rule:nonzero;"/>
            <path d="M411.705,86.064C424.598,86.064 425.56,98.957 425.56,98.957L431.717,98.957L431.717,79.714L386.111,79.714C386.111,79.714 378.992,89.143 397.657,110.31C397.657,110.31 411.128,125.897 411.32,132.825L403.623,132.825C392.462,132.825 391.308,119.932 391.308,119.932L384.957,119.932L384.957,139.175L430.948,139.175C430.948,139.175 439.222,130.131 418.633,106.846C418.633,106.846 407.857,95.685 405.74,86.064L411.705,86.064Z" style="fill:white;fill-rule:nonzero;"/>
            <path d="M465.009,86.064C477.709,86.064 478.863,98.957 478.863,98.957L485.021,98.957L485.021,79.714L439.415,79.714C439.415,79.714 432.102,89.143 450.961,110.31C450.961,110.31 464.432,125.897 464.624,132.825L456.927,132.825C445.766,132.825 444.612,119.932 444.612,119.932L438.454,119.932L438.454,139.175L484.445,139.175C484.445,139.175 492.719,130.131 472.13,106.846C472.13,106.846 461.354,95.685 459.236,86.064L465.009,86.064Z" style="fill:white;fill-rule:nonzero;"/>
        </g>
    </g>
    <g transform="matrix(1,0,0,1,-150,0)">
        <path d="M156.157,335.878C157.888,336.84 159.428,337.417 160.968,337.802C162.507,338.188 164.432,338.38 166.163,338.38C167.125,338.38 168.088,338.188 169.05,337.994C170.012,337.802 170.974,337.224 171.552,336.647C172.322,336.07 172.899,335.3 173.476,334.337C174.053,333.375 174.246,332.221 174.246,331.066C174.246,330.103 174.054,329.141 173.669,328.372C173.284,327.603 172.707,326.833 172.13,326.255C171.553,325.678 170.782,325.101 169.82,324.524C168.858,323.947 168.089,323.562 167.126,322.984L163.855,321.253C162.892,320.676 161.93,320.099 160.968,319.522C160.006,318.945 159.236,318.174 158.658,317.212C158.081,316.442 157.504,315.288 157.119,314.325C156.734,313.171 156.542,311.824 156.542,310.476C156.542,308.36 156.927,306.435 157.696,304.896C158.465,303.357 159.621,302.009 160.967,301.047C162.313,300.085 163.854,299.315 165.393,298.93C167.124,298.545 168.664,298.16 170.396,298.16C173.86,298.16 176.939,298.545 179.826,299.508L179.441,305.28C178.093,304.703 176.747,304.126 175.208,303.933C173.668,303.741 172.129,303.548 170.781,303.548C169.819,303.548 169.05,303.74 168.088,303.933C167.125,304.125 166.356,304.51 165.586,305.087C164.816,305.664 164.239,306.241 163.855,307.011C163.47,307.782 163.084,308.936 163.084,310.09C163.084,311.053 163.276,311.822 163.47,312.4C163.855,312.977 164.24,313.747 164.817,314.131C165.394,314.515 165.971,315.094 166.741,315.479C167.512,315.864 168.281,316.249 168.858,316.633L172.322,318.364C173.669,318.942 174.823,319.712 175.786,320.289C176.748,320.866 177.71,321.828 178.672,322.791C179.443,323.753 180.02,324.715 180.597,326.062C180.982,327.217 181.367,328.756 181.367,330.489C181.367,332.798 180.982,334.722 180.213,336.261C179.444,337.8 178.481,339.34 177.134,340.302C175.787,341.264 174.247,342.227 172.516,342.612C170.784,343.189 168.86,343.382 166.935,343.382C165.204,343.382 163.472,343.19 161.74,342.997C159.816,342.805 158.084,342.227 156.16,341.649L156.16,335.878L156.157,335.878Z" style="fill-rule:nonzero;"/>
        <path d="M194.45,327.988C194.45,329.527 194.643,330.875 195.028,332.221C195.413,333.567 196.182,334.723 196.952,335.685C197.914,336.647 198.877,337.416 200.223,338.187C201.57,338.764 203.11,339.149 204.841,339.149C206.188,339.149 207.728,338.957 209.267,338.572C210.807,338.187 212.154,337.801 213.308,337.032L213.693,341.843C212.154,342.421 210.615,342.998 209.075,343.191C207.344,343.383 205.804,343.576 203.88,343.576C201.186,343.576 198.877,343.191 196.952,342.229C195.028,341.458 193.296,340.112 191.949,338.573C190.601,337.033 189.639,335.302 188.87,333.184C188.1,331.068 187.908,328.758 187.908,326.064C187.908,323.755 188.293,321.638 188.87,319.522C189.447,317.405 190.409,315.673 191.757,314.133C192.911,312.594 194.45,311.247 196.375,310.477C198.106,309.515 200.224,309.13 202.533,309.13C205.034,309.13 207.151,309.515 208.69,310.477C210.422,311.248 211.769,312.594 212.731,313.941C213.693,315.289 214.463,317.212 214.848,319.137C215.233,321.253 215.425,323.37 215.425,325.679L215.425,327.604L194.45,327.604L194.45,327.988ZM209.46,323.947C209.46,322.793 209.268,321.445 209.075,320.291C208.882,319.137 208.498,317.981 207.921,317.02C207.344,316.059 206.767,315.289 205.804,314.71C204.842,314.133 203.688,313.94 202.341,313.94C200.993,313.94 199.839,314.325 198.877,314.902C197.914,315.48 197.145,316.25 196.375,317.212C195.798,318.174 195.221,319.137 194.836,320.483C194.45,321.637 194.258,322.793 194.258,324.139L209.46,324.139L209.46,323.947Z" style="fill-rule:nonzero;"/>
        <path d="M227.934,327.988C227.934,329.527 228.126,330.875 228.511,332.221C228.896,333.567 229.666,334.723 230.436,335.685C231.398,336.647 232.36,337.416 233.707,338.187C235.054,338.764 236.593,339.149 238.325,339.149C239.672,339.149 241.211,338.957 242.751,338.572C244.29,338.187 245.638,337.801 246.792,337.032L247.177,341.843C245.638,342.421 244.098,342.998 242.559,343.191C240.827,343.383 239.288,343.576 237.363,343.576C234.67,343.576 232.36,343.191 230.436,342.229C228.511,341.266 226.78,340.112 225.432,338.573C224.085,337.033 223.123,335.302 222.354,333.184C221.776,331.068 221.391,328.758 221.391,326.064C221.391,323.755 221.776,321.638 222.354,319.522C222.931,317.405 223.893,315.673 225.24,314.133C226.395,312.594 227.934,311.247 229.859,310.477C231.59,309.515 233.708,309.13 236.016,309.13C238.518,309.13 240.634,309.515 242.174,310.477C243.713,311.44 245.253,312.594 246.215,313.941C247.177,315.481 247.946,317.212 248.331,319.137C248.716,321.061 248.908,323.37 248.908,325.679L248.908,327.604L227.933,327.604L227.933,327.988L227.934,327.988ZM242.944,323.947C242.944,322.793 242.752,321.445 242.559,320.291C242.366,319.137 241.982,317.981 241.405,317.02C240.827,316.058 240.25,315.289 239.288,314.71C238.326,314.133 237.171,313.94 235.824,313.94C234.477,313.94 233.322,314.325 232.36,314.902C231.398,315.48 230.629,316.25 229.859,317.212C229.088,318.174 228.704,319.137 228.319,320.483C227.934,321.637 227.742,322.793 227.742,324.139L242.944,324.139L242.944,323.947Z" style="fill-rule:nonzero;"/>
        <path d="M256.798,303.165L256.798,296.814L263.149,296.814L263.149,303.165L256.798,303.165ZM256.798,342.998L256.798,309.899L263.149,309.899L263.149,342.998L256.798,342.998Z" style="fill-rule:nonzero;"/>
        <path d="M272.771,342.998L272.771,313.748C272.771,312.401 272.579,311.247 272.579,309.899L278.544,309.899L278.736,315.672C280.853,311.439 284.317,309.321 288.935,309.321C290.859,309.321 292.591,309.706 293.938,310.283C295.285,310.86 296.44,311.823 297.209,312.977C297.978,314.131 298.556,315.479 298.94,317.018C299.324,318.557 299.517,320.289 299.517,322.213L299.517,342.996L293.167,342.996L293.167,323.56C293.167,322.405 293.167,321.25 292.975,320.096C292.783,318.942 292.59,317.979 292.013,317.209C291.627,316.439 290.858,315.67 290.088,315.285C289.318,314.899 288.164,314.514 286.817,314.514C285.278,314.514 284.124,314.9 283.161,315.477C282.199,316.054 281.43,316.824 280.852,317.978C280.275,318.941 279.889,320.095 279.504,321.442C279.312,322.79 279.119,323.944 279.119,325.291L279.119,343.187L272.769,343.187L272.769,342.998L272.771,342.998Z" style="fill-rule:nonzero;"/>
        <path d="M309.909,350.695C311.256,351.465 312.796,352.042 314.335,352.426C315.875,352.811 317.606,353.003 319.146,353.003C320.878,353.003 322.417,352.811 323.765,352.233C325.112,351.656 326.074,350.886 327.036,349.731C327.806,348.769 328.575,347.422 328.96,346.075C329.345,344.536 329.537,342.997 329.537,341.264L329.537,337.415C328.575,339.34 327.228,340.686 325.496,341.648C323.765,342.611 321.84,343.188 319.916,343.188C317.606,343.188 315.683,342.611 313.95,341.648C312.411,340.686 311.063,339.339 309.909,337.799C308.755,336.26 308.178,334.528 307.6,332.411C307.214,330.487 306.829,328.37 306.829,326.253C306.829,324.137 307.021,322.02 307.6,319.903C307.985,317.786 308.754,316.054 309.909,314.514C310.871,312.975 312.219,311.628 313.95,310.666C315.49,309.703 317.606,309.318 319.916,309.318C322.032,309.318 323.957,309.895 325.688,310.857C327.42,311.82 328.767,313.359 329.729,315.476L329.729,310.087L335.695,310.087L335.695,341.261C335.695,346.65 334.347,350.883 331.846,353.77C329.344,356.656 325.303,358.196 320.108,358.196C318.376,358.196 316.452,358.004 314.719,357.811C312.988,357.619 311.063,357.04 309.331,356.463L309.909,350.695ZM315.49,334.146C316.067,335.3 316.837,336.07 317.799,336.839C318.761,337.608 320.109,337.801 321.648,337.801C323.188,337.801 324.342,337.416 325.497,336.647C326.459,335.877 327.422,334.916 327.999,333.953C328.576,332.799 329.153,331.644 329.346,330.297C329.538,328.95 329.731,327.604 329.731,326.449C329.731,325.101 329.539,323.755 329.346,322.407C329.154,321.06 328.576,319.714 327.999,318.558C327.422,317.404 326.459,316.442 325.497,315.672C324.535,314.902 323.188,314.517 321.648,314.517C319.917,314.517 318.761,314.903 317.607,315.672C316.645,316.442 315.683,317.403 315.105,318.558C314.528,319.713 314.143,321.06 313.951,322.407C313.759,323.755 313.566,325.294 313.566,326.641C313.566,327.988 313.758,329.142 313.951,330.682C314.528,331.837 314.912,332.991 315.49,334.146Z" style="fill-rule:nonzero;"/>
        <path d="M365.522,342.998L365.522,295.467L371.873,295.467L371.873,315.481C372.643,313.556 373.989,312.017 375.722,310.862C377.453,309.708 379.378,309.323 381.494,309.323C383.804,309.323 385.92,309.708 387.46,310.671C389.191,311.633 390.347,312.787 391.501,314.519C392.655,316.251 393.232,317.983 393.617,319.908C394.003,322.024 394.195,324.141 394.195,326.258C394.195,328.375 394.003,330.685 393.424,332.609C393.039,334.726 392.27,336.458 391.115,338.19C390.153,339.729 388.805,341.076 387.074,342.038C385.342,343.001 383.418,343.578 381.108,343.578C378.992,343.578 377.067,343.001 375.336,342.038C373.604,341.076 372.257,339.537 371.295,337.42L371.103,342.809L365.522,342.809L365.522,342.998ZM373.219,334.531C373.796,335.685 374.759,336.647 375.721,337.417C376.683,338.188 378.03,338.572 379.57,338.572C381.109,338.572 382.457,338.187 383.419,337.417C384.381,336.647 385.343,335.686 385.92,334.531C386.498,333.376 386.883,332.029 387.075,330.49C387.267,328.95 387.46,327.603 387.46,326.256C387.46,324.909 387.268,323.563 387.075,322.023C386.883,320.676 386.498,319.33 385.92,318.174C385.343,317.02 384.573,316.058 383.611,315.288C382.649,314.517 381.301,314.133 379.57,314.133C378.03,314.133 376.876,314.518 375.721,315.288C374.567,316.058 373.796,317.019 373.219,318.174C372.642,319.329 372.065,320.676 371.872,322.023C371.68,323.371 371.487,324.717 371.487,326.064C371.487,327.412 371.679,328.758 371.872,330.105C372.257,332.029 372.642,333.376 373.219,334.531Z" style="fill-rule:nonzero;"/>
        <path d="M407.087,327.988C407.087,329.527 407.279,330.875 407.664,332.221C408.049,333.567 408.818,334.723 409.588,335.685C410.551,336.647 411.513,337.416 412.859,338.187C414.207,338.764 415.746,339.149 417.477,339.149C418.825,339.149 420.364,338.957 421.904,338.572C423.443,338.187 424.79,337.801 425.945,337.032L426.33,341.843C424.79,342.421 423.251,342.998 421.712,343.191C419.98,343.383 418.441,343.576 416.516,343.576C413.823,343.576 411.513,343.191 409.588,342.229C407.664,341.266 405.933,340.112 404.585,338.573C403.238,337.033 402.276,335.302 401.506,333.184C400.929,331.068 400.544,328.758 400.544,326.064C400.544,323.755 400.929,321.638 401.506,319.522C402.084,317.405 403.046,315.673 404.393,314.133C405.547,312.594 407.087,311.247 409.011,310.477C410.743,309.515 412.86,309.13 415.169,309.13C417.67,309.13 419.787,309.515 421.326,310.477C422.866,311.44 424.405,312.594 425.367,313.941C426.33,315.481 427.099,317.212 427.484,319.137C427.869,321.061 428.061,323.37 428.061,325.679L428.061,327.604L407.086,327.604L407.086,327.988L407.087,327.988ZM422.097,323.947C422.097,322.793 421.905,321.445 421.712,320.291C421.519,319.137 421.134,317.981 420.557,317.02C419.98,316.059 419.403,315.289 418.441,314.71C417.478,314.133 416.324,313.94 414.977,313.94C413.629,313.94 412.475,314.325 411.513,314.902C410.551,315.48 409.782,316.25 409.011,317.212C408.241,318.174 407.857,319.137 407.472,320.483C407.087,321.637 406.895,322.793 406.895,324.139L422.097,324.139L422.097,323.947Z" style="fill-rule:nonzero;"/>
        <path d="M433.258,352.427C434.22,352.812 435.374,352.812 436.336,352.812C437.876,352.812 439.223,352.235 439.992,351.081C440.761,349.927 441.532,348.387 442.302,346.078L442.879,343.961L431.525,309.708L438.453,309.708L446.15,336.841L453.655,309.708L460.005,309.708L447.882,347.04C447.497,348.387 446.92,349.541 446.343,350.889C445.766,352.236 445.189,353.198 444.418,354.353C443.648,355.315 442.687,356.084 441.532,356.854C440.377,357.431 439.03,357.817 437.299,357.817C435.567,357.817 434.028,357.625 432.68,357.431L433.258,352.427Z" style="fill-rule:nonzero;"/>
        <path d="M472.129,342.613C469.242,341.265 467.125,339.149 465.586,336.455C464.046,333.568 463.276,330.297 463.276,326.641C463.276,324.14 463.661,321.83 464.431,319.714C465.201,317.597 466.162,315.865 467.509,314.325C468.857,312.786 470.396,311.632 472.321,310.861C474.245,310.091 476.362,309.514 478.671,309.514C481.173,309.514 483.289,309.899 485.214,310.668C487.138,311.439 488.87,312.593 490.025,314.132C491.372,315.672 492.335,317.403 493.104,319.521C493.681,321.637 494.066,323.947 494.066,326.448C494.066,328.95 493.681,331.26 493.104,333.376C492.527,335.493 491.373,337.417 490.025,338.957C488.678,340.496 487.138,341.65 485.214,342.613C483.289,343.383 480.981,343.96 478.671,343.96C476.17,343.768 474.053,343.383 472.129,342.613ZM472.129,334.916C472.899,336.07 473.668,337.032 474.822,337.802C475.976,338.573 477.324,338.957 478.863,338.957C480.403,338.957 481.75,338.572 482.904,337.802C484.059,337.032 484.829,336.071 485.598,334.916C486.368,333.761 486.752,332.414 487.137,331.067C487.522,329.527 487.522,328.18 487.522,326.641C487.522,325.101 487.33,323.754 487.137,322.214C486.752,320.675 486.367,319.521 485.598,318.365C484.828,317.211 484.059,316.249 482.904,315.672C481.75,314.902 480.403,314.71 478.863,314.71C477.324,314.71 475.976,315.095 474.822,315.672C473.668,316.442 472.898,317.403 472.129,318.558C471.358,319.713 470.974,321.06 470.589,322.408C470.204,323.755 470.204,325.294 470.204,326.641C470.204,328.18 470.396,329.527 470.589,331.067C470.974,332.414 471.359,333.761 472.129,334.916Z" style="fill-rule:nonzero;"/>
        <path d="M502.148,342.998L502.148,313.748C502.148,312.401 501.956,311.247 501.956,309.899L507.922,309.899L508.114,315.672C510.23,311.439 513.694,309.321 518.312,309.321C520.237,309.321 521.968,309.706 523.316,310.283C524.663,310.86 525.817,311.823 526.587,312.977C527.357,314.131 527.934,315.479 528.318,317.018C528.702,318.557 528.895,320.289 528.895,322.213L528.895,342.996L522.544,342.996L522.544,323.56C522.544,322.405 522.544,321.25 522.352,320.096C522.16,318.942 521.967,317.979 521.39,317.209C520.813,316.439 520.236,315.67 519.466,315.285C518.696,314.707 517.541,314.514 516.195,314.514C514.655,314.514 513.501,314.9 512.539,315.477C511.577,316.054 510.807,316.824 510.229,317.978C509.652,318.941 509.267,320.095 508.882,321.442C508.69,322.79 508.497,323.944 508.497,325.291L508.497,343.187L502.146,343.187L502.146,342.998L502.148,342.998Z" style="fill-rule:nonzero;"/>
        <path d="M559.877,342.998L559.492,337.609C558.53,339.726 557.182,341.265 555.451,342.228C553.719,343.19 551.795,343.767 549.678,343.767C547.369,343.767 545.252,343.19 543.713,342.228C541.981,341.265 540.634,339.918 539.672,338.379C538.71,336.839 537.94,334.915 537.362,332.798C536.977,330.682 536.592,328.565 536.592,326.448C536.592,324.331 536.784,322.214 537.362,320.097C537.747,317.98 538.517,316.248 539.672,314.709C540.634,313.169 541.981,311.822 543.713,310.86C545.444,309.897 547.369,309.512 549.678,309.512C551.603,309.512 553.527,310.089 555.259,311.052C556.99,312.014 558.338,313.553 559.108,315.67L559.108,295.66L565.458,295.66L565.458,338.572C565.458,340.111 565.651,341.843 565.651,343.383L559.878,343.383L559.878,342.998L559.877,342.998ZM545.06,334.531C545.637,335.685 546.408,336.647 547.562,337.417C548.524,338.188 549.871,338.572 551.411,338.572C552.95,338.572 554.105,338.187 555.26,337.417C556.222,336.647 557.184,335.686 557.761,334.531C558.339,333.376 558.916,332.029 559.109,330.682C559.301,329.334 559.494,327.795 559.494,326.64C559.494,325.293 559.302,323.947 559.109,322.599C558.917,321.252 558.339,319.906 557.761,318.751C557.184,317.596 556.222,316.634 555.26,315.864C554.298,315.094 552.95,314.709 551.411,314.709C549.679,314.709 548.524,315.095 547.37,315.864C546.408,316.634 545.638,317.595 545.06,318.751C544.483,319.905 544.098,321.252 543.906,322.599C543.714,323.947 543.521,325.486 543.521,326.833C543.521,328.18 543.713,329.526 543.906,331.066C543.906,332.029 544.29,333.376 545.06,334.531Z" style="fill-rule:nonzero;"/>
    </g>
</svg>
