<?xml version="1.0" encoding="UTF-8" standalone="no"?>
<!DOCTYPE svg PUBLIC "-//W3C//DTD SVG 1.1//EN" "http://www.w3.org/Graphics/SVG/1.1/DTD/svg11.dtd">
<svg width="100%" height="100%" viewBox="0 0 400 208" version="1.1" xmlns="http://www.w3.org/2000/svg" xmlns:xlink="http://www.w3.org/1999/xlink" xml:space="preserve" xmlns:serif="http://www.serif.com/" style="fill-rule:evenodd;clip-rule:evenodd;stroke-linejoin:round;stroke-miterlimit:2;">
    <g id="svgg">
    </g>
    <g id="small-curves" serif:id="small curves" transform="matrix(0.711508,0,0,0.711508,53.6083,27.739)">
        <path id="path0" d="M18.364,63.001L18.364,152.268L96.12,197.056L174.558,151.926L174.558,62.454C174.558,62.454 96.437,16.957 96.117,16.991M155.601,65.371L130.35,80.489L96.12,60.763L61.769,80.412L36.072,65.724C36.072,65.724 95.925,30.159 96.12,30.261M96.12,101.719C95.956,102.146 67.845,117.454 67.845,117.454L67.845,90.648L96.12,73.484M162.69,145.645L101.724,180.938L101.693,149.831L136.015,129.944L136.021,89.979C136.021,89.979 162.429,75.033 162.721,74.99M125.385,123.969L96.901,140.534L72.38,126.751L101.306,110.255"/>
        <g transform="matrix(1.32129,0,0,1.32129,-78.4345,34.9312)">
            <path d="M200.444,54.649C200.444,52.825 200.792,51.109 201.488,49.501C202.184,47.893 203.144,46.465 204.368,45.217C205.592,43.969 207.014,42.991 208.634,42.283C210.254,41.575 211.988,41.221 213.836,41.221C215.66,41.221 217.382,41.575 219.002,42.283C220.622,42.991 222.05,43.969 223.286,45.217C224.522,46.465 225.494,47.893 226.202,49.501C226.91,51.109 227.264,52.825 227.264,54.649C227.264,56.497 226.91,58.231 226.202,59.851C225.494,61.471 224.522,62.893 223.286,64.117C222.05,65.341 220.622,66.295 219.002,66.979C217.382,67.663 215.66,68.005 213.836,68.005C211.964,68.005 210.224,67.663 208.616,66.979C207.008,66.295 205.592,65.347 204.368,64.135C203.144,62.923 202.184,61.507 201.488,59.887C200.792,58.267 200.444,56.521 200.444,54.649ZM204.764,54.649C204.764,55.945 204.998,57.157 205.466,58.285C205.934,59.413 206.588,60.403 207.428,61.255C208.268,62.107 209.24,62.773 210.344,63.253C211.448,63.733 212.648,63.973 213.944,63.973C215.192,63.973 216.362,63.733 217.454,63.253C218.546,62.773 219.5,62.107 220.316,61.255C221.132,60.403 221.774,59.413 222.242,58.285C222.71,57.157 222.944,55.945 222.944,54.649C222.944,53.329 222.704,52.105 222.224,50.977C221.744,49.849 221.096,48.853 220.28,47.989C219.464,47.125 218.504,46.453 217.4,45.973C216.296,45.493 215.108,45.253 213.836,45.253C212.564,45.253 211.376,45.493 210.272,45.973C209.168,46.453 208.202,47.125 207.374,47.989C206.546,48.853 205.904,49.855 205.448,50.995C204.992,52.135 204.764,53.353 204.764,54.649Z" style="fill-rule:nonzero;"/>
            <path d="M252.644,65.665C252.26,65.929 251.69,66.253 250.934,66.637C250.178,67.021 249.278,67.351 248.234,67.627C247.19,67.903 246.032,68.029 244.76,68.005C242.72,67.981 240.884,67.615 239.252,66.907C237.62,66.199 236.24,65.239 235.112,64.027C233.984,62.815 233.114,61.423 232.502,59.851C231.89,58.279 231.584,56.605 231.584,54.829C231.584,52.837 231.896,51.013 232.52,49.357C233.144,47.701 234.032,46.267 235.184,45.055C236.336,43.843 237.704,42.901 239.288,42.229C240.872,41.557 242.6,41.221 244.472,41.221C246.128,41.221 247.61,41.443 248.918,41.887C250.226,42.331 251.324,42.829 252.212,43.381L250.556,47.305C249.884,46.849 249.044,46.393 248.036,45.937C247.028,45.481 245.888,45.253 244.616,45.253C243.464,45.253 242.36,45.487 241.304,45.955C240.248,46.423 239.324,47.083 238.532,47.935C237.74,48.787 237.11,49.777 236.642,50.905C236.174,52.033 235.94,53.257 235.94,54.577C235.94,55.945 236.15,57.205 236.57,58.357C236.99,59.509 237.59,60.499 238.37,61.327C239.15,62.155 240.086,62.803 241.178,63.271C242.27,63.739 243.5,63.973 244.868,63.973C246.212,63.973 247.394,63.763 248.414,63.343C249.434,62.923 250.256,62.449 250.88,61.921L252.644,65.665Z" style="fill-rule:nonzero;"/>
            <path d="M256.172,41.509L273.704,41.509L273.704,45.541L266.936,45.541L266.936,67.717L262.76,67.717L262.76,45.541L256.172,45.541L256.172,41.509Z" style="fill-rule:nonzero;"/>
            <path d="M286.268,66.313C285.596,66.865 284.774,67.303 283.802,67.627C282.83,67.951 281.852,68.113 280.868,68.113C279.188,68.113 277.712,67.783 276.44,67.123C275.168,66.463 274.178,65.539 273.47,64.351C272.762,63.163 272.408,61.741 272.408,60.085C272.408,58.429 272.786,57.001 273.542,55.801C274.298,54.601 275.294,53.683 276.53,53.047C277.766,52.411 279.068,52.093 280.436,52.093C281.732,52.093 282.872,52.267 283.856,52.615C284.84,52.963 285.68,53.437 286.376,54.037L284.396,56.665C284.012,56.353 283.514,56.059 282.902,55.783C282.29,55.507 281.588,55.369 280.796,55.369C280.004,55.369 279.272,55.573 278.6,55.981C277.928,56.389 277.4,56.947 277.016,57.655C276.632,58.363 276.44,59.173 276.44,60.085C276.44,60.949 276.644,61.741 277.052,62.461C277.46,63.181 278.018,63.751 278.726,64.171C279.434,64.591 280.256,64.801 281.192,64.801C281.816,64.801 282.38,64.711 282.884,64.531C283.388,64.351 283.844,64.105 284.252,63.793L286.268,66.313Z" style="fill-rule:nonzero;"/>
            <path d="M297.32,68.113C295.904,68.113 294.614,67.813 293.45,67.213C292.286,66.613 291.368,65.719 290.696,64.531C290.024,63.343 289.688,61.873 289.688,60.121C289.688,58.393 290.042,56.911 290.75,55.675C291.458,54.439 292.394,53.485 293.558,52.813C294.722,52.141 295.988,51.805 297.356,51.805C298.82,51.805 300.002,52.099 300.902,52.687C301.802,53.275 302.504,53.953 303.008,54.721L302.792,55.297L303.188,52.489L306.896,52.489L306.896,67.717L302.864,67.717L302.864,64.009L303.26,64.981C303.188,65.125 303.002,65.359 302.702,65.683C302.402,66.007 302,66.361 301.496,66.745C300.992,67.129 300.398,67.453 299.714,67.717C299.03,67.981 298.232,68.113 297.32,68.113ZM298.436,64.801C299.18,64.801 299.852,64.669 300.452,64.405C301.052,64.141 301.556,63.769 301.964,63.289C302.372,62.809 302.672,62.233 302.864,61.561L302.864,58.249C302.672,57.625 302.36,57.079 301.928,56.611C301.496,56.143 300.974,55.777 300.362,55.513C299.75,55.249 299.072,55.117 298.328,55.117C297.488,55.117 296.726,55.321 296.042,55.729C295.358,56.137 294.806,56.701 294.386,57.421C293.966,58.141 293.756,58.969 293.756,59.905C293.756,60.817 293.972,61.645 294.404,62.389C294.836,63.133 295.412,63.721 296.132,64.153C296.852,64.585 297.62,64.801 298.436,64.801Z" style="fill-rule:nonzero;"/>
            <path d="M317.192,68.041C316.04,68.041 314.942,67.837 313.898,67.429C312.854,67.021 311.984,66.421 311.288,65.629L312.98,63.361C313.652,64.009 314.318,64.483 314.978,64.783C315.638,65.083 316.268,65.233 316.868,65.233C317.324,65.233 317.738,65.179 318.11,65.071C318.482,64.963 318.782,64.789 319.01,64.549C319.238,64.309 319.352,63.985 319.352,63.577C319.352,63.097 319.184,62.719 318.848,62.443C318.512,62.167 318.08,61.939 317.552,61.759C317.024,61.579 316.46,61.405 315.86,61.237C314.564,60.805 313.592,60.199 312.944,59.419C312.296,58.639 311.972,57.733 311.972,56.701C311.972,55.909 312.176,55.147 312.584,54.415C312.992,53.683 313.616,53.077 314.456,52.597C315.296,52.117 316.352,51.877 317.624,51.877C318.776,51.877 319.778,52.009 320.63,52.273C321.482,52.537 322.28,52.957 323.024,53.533L321.476,55.981C321.044,55.549 320.534,55.219 319.946,54.991C319.358,54.763 318.824,54.637 318.344,54.613C317.912,54.589 317.528,54.643 317.192,54.775C316.856,54.907 316.58,55.093 316.364,55.333C316.148,55.573 316.04,55.849 316.04,56.161C316.04,56.641 316.214,57.025 316.562,57.313C316.91,57.601 317.36,57.829 317.912,57.997C318.464,58.165 319.016,58.345 319.568,58.537C320.312,58.753 320.966,59.053 321.53,59.437C322.094,59.821 322.544,60.283 322.88,60.823C323.216,61.363 323.384,62.029 323.384,62.821C323.384,63.733 323.156,64.591 322.7,65.395C322.244,66.199 321.56,66.841 320.648,67.321C319.736,67.801 318.584,68.041 317.192,68.041Z" style="fill-rule:nonzero;"/>
            <path d="M334.436,68.113C332.636,68.113 331.1,67.765 329.828,67.069C328.556,66.373 327.584,65.413 326.912,64.189C326.24,62.965 325.904,61.561 325.904,59.977C325.904,58.465 326.288,57.091 327.056,55.855C327.824,54.619 328.862,53.635 330.17,52.903C331.478,52.171 332.924,51.805 334.508,51.805C336.596,51.805 338.318,52.411 339.674,53.623C341.03,54.835 341.936,56.545 342.392,58.753L330.116,62.893L329.18,60.625L338.792,57.205L337.928,57.673C337.688,56.953 337.268,56.323 336.668,55.783C336.068,55.243 335.24,54.973 334.184,54.973C333.344,54.973 332.6,55.177 331.952,55.585C331.304,55.993 330.794,56.551 330.422,57.259C330.05,57.967 329.864,58.801 329.864,59.761C329.864,60.769 330.068,61.639 330.476,62.371C330.884,63.103 331.436,63.667 332.132,64.063C332.828,64.459 333.62,64.657 334.508,64.657C335.132,64.657 335.726,64.549 336.29,64.333C336.854,64.117 337.4,63.829 337.928,63.469L339.764,66.457C338.972,66.961 338.102,67.363 337.154,67.663C336.206,67.963 335.3,68.113 334.436,68.113Z" style="fill-rule:nonzero;"/>
            <path d="M350.708,68.041C349.556,68.041 348.458,67.837 347.414,67.429C346.37,67.021 345.5,66.421 344.804,65.629L346.496,63.361C347.168,64.009 347.834,64.483 348.494,64.783C349.154,65.083 349.784,65.233 350.384,65.233C350.84,65.233 351.254,65.179 351.626,65.071C351.998,64.963 352.298,64.789 352.526,64.549C352.754,64.309 352.868,63.985 352.868,63.577C352.868,63.097 352.7,62.719 352.364,62.443C352.028,62.167 351.596,61.939 351.068,61.759C350.54,61.579 349.976,61.405 349.376,61.237C348.08,60.805 347.108,60.199 346.46,59.419C345.812,58.639 345.488,57.733 345.488,56.701C345.488,55.909 345.692,55.147 346.1,54.415C346.508,53.683 347.132,53.077 347.972,52.597C348.812,52.117 349.868,51.877 351.14,51.877C352.292,51.877 353.294,52.009 354.146,52.273C354.998,52.537 355.796,52.957 356.54,53.533L354.992,55.981C354.56,55.549 354.05,55.219 353.462,54.991C352.874,54.763 352.34,54.637 351.86,54.613C351.428,54.589 351.044,54.643 350.708,54.775C350.372,54.907 350.096,55.093 349.88,55.333C349.664,55.573 349.556,55.849 349.556,56.161C349.556,56.641 349.73,57.025 350.078,57.313C350.426,57.601 350.876,57.829 351.428,57.997C351.98,58.165 352.532,58.345 353.084,58.537C353.828,58.753 354.482,59.053 355.046,59.437C355.61,59.821 356.06,60.283 356.396,60.823C356.732,61.363 356.9,62.029 356.9,62.821C356.9,63.733 356.672,64.591 356.216,65.395C355.76,66.199 355.076,66.841 354.164,67.321C353.252,67.801 352.1,68.041 350.708,68.041Z" style="fill-rule:nonzero;"/>
        </g>
    </g>
</svg>
