<?xml version="1.0" encoding="UTF-8" standalone="no"?>
<!DOCTYPE svg PUBLIC "-//W3C//DTD SVG 1.1//EN" "http://www.w3.org/Graphics/SVG/1.1/DTD/svg11.dtd">
<svg width="100%" height="100%" viewBox="0 0 400 208" version="1.1" xmlns="http://www.w3.org/2000/svg" xmlns:xlink="http://www.w3.org/1999/xlink" xml:space="preserve" xmlns:serif="http://www.serif.com/" style="fill-rule:evenodd;clip-rule:evenodd;stroke-linejoin:round;stroke-miterlimit:2;">
    <g id="svgg">
    </g>
    <g transform="matrix(0.7176,0,0,0.7176,52.5781,26.7658)">
        <g id="svgg1" serif:id="svgg">
            <path id="path0" d="M85.159,23.966C71.081,32.164 44.447,47.558 32.155,54.6C26.714,57.718 21.385,60.884 20.313,61.635L18.364,63.001L18.546,107.639L18.728,152.278L43.463,166.58C57.067,174.446 74.584,184.556 82.39,189.047L96.581,197.212L132.92,176.236C152.906,164.699 170.451,154.509 171.908,153.593L174.558,151.926L174.558,62.454L158.127,53.001C149.09,47.802 131.623,37.725 119.31,30.608C106.998,23.491 96.662,17.696 96.342,17.73C96.022,17.765 90.989,20.571 85.159,23.966M111.661,39.258C119.629,43.849 132.796,51.444 140.921,56.135C149.046,60.826 155.652,64.982 155.601,65.371C155.52,65.987 151.074,68.672 134.256,78.262L130.35,80.489L113.408,70.702C98.105,61.861 96.325,61.003 95.009,61.835C87.898,66.329 62.419,80.568 61.769,80.412C60.549,80.119 36.093,66.14 36.072,65.724C36.062,65.53 42.014,61.944 49.299,57.754C56.584,53.565 70.177,45.728 79.505,40.339C88.834,34.95 96.625,30.623 96.82,30.725C97.014,30.827 103.693,34.666 111.661,39.258M95.848,100.731C95.684,101.158 90.509,104.388 84.348,107.908C78.186,111.428 71.952,115.016 70.495,115.881L67.845,117.454L67.845,90.648L81.802,82.557L95.76,74.465L95.953,87.21C96.059,94.219 96.012,100.304 95.848,100.731M163.251,110.265L163.251,145.618L160.247,147.389C158.595,148.363 151.837,152.278 145.23,156.09C138.622,159.902 126.391,166.969 118.051,171.793C109.71,176.618 102.634,180.671 102.327,180.801C102.019,180.931 101.767,174.201 101.767,165.847L101.767,150.657L118.905,140.751L136.042,130.846L136.23,110.451L136.417,90.055L149.304,82.562C156.392,78.44 162.429,75.033 162.721,74.99C163.012,74.947 163.251,90.821 163.251,110.265M196.58,91.595C184.396,97.667 183.35,114.44 194.693,121.866C207.173,130.036 223.207,120.35 221.692,105.557C220.437,93.309 207.535,86.136 196.58,91.595M237.809,91.071C226.293,96.316 224.385,113.622 234.475,121.317C242.821,127.683 259.054,124.948 253.322,118.141C253.215,118.013 252.309,118.444 251.309,119.099C248.531,120.919 241.809,120.763 238.641,118.805C225.384,110.612 236.631,88.12 250.392,95.303L253.081,96.707L253.778,94.875C255.516,90.304 244.996,87.798 237.809,91.071M260.777,92.276L260.777,94.8L269.611,94.44L269.611,124.382L274.177,124.382L274.368,109.41L274.558,94.438L283.392,94.8L283.392,89.753L260.777,89.753L260.777,92.276M209.623,95.345C216.645,98.534 219.259,107.888 214.987,114.539C208.08,125.291 191.519,120.22 191.519,107.352C191.519,97.717 201,91.429 209.623,95.345M311.988,104.639C301.51,107.686 303.938,125.088 314.841,125.088C317.014,125.088 321.555,123.122 321.555,122.181C321.555,121.837 321.894,121.555 322.309,121.555C322.742,121.555 322.872,122.157 322.615,122.968C322.223,124.203 322.488,124.382 324.707,124.382L327.248,124.382L327.052,114.664L326.855,104.947L324.912,104.723C323.346,104.543 322.968,104.784 322.968,105.96C322.968,106.763 322.65,107.42 322.261,107.42C321.873,107.42 321.555,107.139 321.555,106.794C321.555,104.845 315.765,103.54 311.988,104.639M337.304,104.93C331.958,107.255 333.136,113.521 339.378,115.962C342.685,117.255 343.911,118.662 343.244,120.399C342.648,121.953 337.99,121.937 336.263,120.375C335.042,119.27 334.897,119.281 333.969,120.55C331.035,124.563 341.993,126.673 346.038,122.873C349.777,119.36 348.056,115.094 341.823,112.422C339.018,111.22 338.457,110.68 338.643,109.368C338.907,107.507 342.834,106.725 344.591,108.184C345.661,109.072 347.992,107.047 347.262,105.864C346.198,104.144 340.37,103.597 337.304,104.93M360.155,104.583C351.497,107.324 350.125,119.077 357.951,123.476C363.029,126.331 371.129,124.814 369.531,121.307C368.773,119.644 368.646,119.615 366.344,120.577C363.583,121.73 361.053,121.301 359.32,119.386C358.338,118.301 358.296,117.985 359.091,117.703C359.63,117.512 362.456,116.511 365.371,115.478C368.286,114.445 371.396,113.327 372.281,112.994L373.891,112.388L372.449,109.561C370.099,104.956 365.218,102.98 360.155,104.583M381.923,104.857C376.93,107.106 377.362,113.01 382.694,115.388C387.253,117.421 387.633,117.738 387.633,119.512C387.633,121.629 383.382,122.276 380.759,120.557C379.244,119.564 379.043,119.588 378.251,120.855C375.995,124.468 386.81,126.396 390.402,123.022C394.307,119.354 392.695,115.143 386.346,112.422C383.541,111.22 382.98,110.68 383.166,109.368C383.43,107.507 387.357,106.725 389.114,108.184C389.949,108.877 390.338,108.786 391.118,107.72C393.036,105.097 386.149,102.953 381.923,104.857M287.783,106.064C280.362,110.948 282.704,123.128 291.378,124.755C296.728,125.759 301.866,123.472 299.524,121.129C298.66,120.265 298.121,120.223 296.633,120.901C291.199,123.377 285.567,116.859 288.455,111.438C290.117,108.316 294.29,107.102 297.484,108.811C299.437,109.856 301.607,107.341 299.944,105.961C297.876,104.244 290.451,104.307 287.783,106.064M320.928,110.148C322.586,111.966 322.721,112.517 322.259,115.567C320.956,124.152 309.541,122.855 309.541,114.123C309.541,108.034 316.715,105.529 320.928,110.148M366.627,108.521C369.255,110.361 368.455,111.386 362.828,113.384C356.821,115.517 356.562,115.472 357.231,112.427C358.158,108.207 363.192,106.114 366.627,108.521M113.85,117.419C123.642,123.045 124.942,123.995 123.859,124.736C122.516,125.655 100.239,138.539 97.834,139.788C96.007,140.737 72.699,127.806 74.332,126.75C77.452,124.731 101.518,111.03 102.005,110.996C102.33,110.973 107.66,113.863 113.85,117.419"/>
        </g>
    </g>
</svg>
