<?xml version="1.0" standalone="no"?>
<!DOCTYPE svg PUBLIC "-//W3C//DTD SVG 20010904//EN"
 "http://www.w3.org/TR/2001/REC-SVG-20010904/DTD/svg10.dtd">
<svg version="1.0" xmlns="http://www.w3.org/2000/svg"
 width="700.000000pt" height="700.000000pt" viewBox="0 0 700.000000 700.000000"
 preserveAspectRatio="xMidYMid meet">
<metadata>
Created by potrace 1.14, written by Peter Selinger 2001-2017
</metadata>
<g transform="translate(0.000000,700.000000) scale(0.100000,-0.100000)"
fill="#000000" stroke="none">
<path d="M3465 6939 c-5 -5 -75 -48 -155 -96 -161 -95 -1007 -596 -1051 -622
-15 -9 -112 -65 -214 -126 -102 -60 -200 -118 -218 -129 -18 -10 -126 -75
-242 -144 -115 -69 -225 -133 -243 -144 -18 -10 -43 -25 -55 -32 -12 -8 -40
-25 -63 -38 -57 -33 -241 -140 -272 -159 -15 -9 -120 -71 -234 -139 l-208
-122 0 -1714 0 -1714 33 -15 c17 -8 50 -26 72 -40 22 -13 46 -28 54 -32 14 -6
234 -132 641 -368 113 -65 214 -123 225 -129 36 -20 240 -137 255 -147 8 -5
121 -70 250 -144 129 -74 242 -140 250 -145 8 -6 27 -16 43 -23 15 -6 27 -15
27 -19 0 -4 4 -8 10 -8 5 0 33 -14 62 -31 29 -18 73 -43 98 -57 86 -48 446
-256 622 -358 97 -57 180 -104 184 -104 3 0 18 -8 32 -19 15 -10 48 -30 73
-43 l46 -26 114 65 c63 36 134 77 159 91 25 14 86 49 135 77 383 221 617 355
620 355 2 0 24 14 48 30 25 17 48 30 51 30 3 0 35 18 71 40 36 22 67 40 69 40
2 0 64 35 137 78 74 43 159 92 189 109 30 17 170 97 310 178 704 407 973 562
1008 580 21 11 50 28 65 38 l27 17 -2 1716 -3 1716 -215 125 c-118 69 -233
135 -255 148 -22 12 -92 53 -155 90 -63 37 -128 75 -145 85 -16 9 -113 65
-215 125 -237 138 -361 210 -430 248 -30 16 -62 35 -70 42 -8 6 -42 27 -75 45
-33 18 -120 69 -192 112 -73 43 -135 78 -138 78 -2 0 -34 18 -70 40 -36 22
-68 40 -72 40 -3 0 -14 6 -22 14 -9 7 -38 26 -66 41 -27 16 -68 39 -90 52 -22
13 -48 26 -57 29 -10 4 -18 10 -18 15 0 5 -4 9 -9 9 -5 0 -119 64 -253 142
-134 77 -263 152 -288 166 -25 14 -71 40 -103 58 -63 37 -67 38 -82 23z m323
-676 c136 -80 373 -220 527 -311 601 -354 771 -455 797 -473 15 -10 29 -19 32
-19 2 0 73 -41 158 -91 84 -50 178 -105 208 -121 100 -56 240 -150 235 -158
-3 -5 -33 -25 -68 -46 -34 -20 -78 -47 -97 -59 -36 -23 -468 -282 -529 -317
-19 -11 -59 -35 -88 -54 -29 -19 -55 -34 -58 -34 -2 0 -26 -14 -54 -31 l-50
-32 -88 50 c-76 42 -765 439 -841 484 -15 9 -47 27 -72 41 -25 14 -105 60
-178 102 l-134 77 -381 -217 c-210 -119 -434 -247 -497 -284 -63 -37 -136 -79
-162 -93 -26 -15 -99 -56 -162 -92 l-114 -66 -274 157 c-150 86 -293 168 -318
182 -98 55 -375 215 -379 218 -7 7 298 194 797 488 57 34 115 68 130 77 15 9
115 68 222 131 107 63 258 152 335 198 77 46 156 92 175 102 19 11 40 24 45
28 6 4 30 19 55 32 25 14 131 76 235 138 302 179 285 171 317 154 16 -8 140
-80 276 -161z m-302 -2008 c1 -282 -1 -524 -3 -539 -3 -14 -10 -26 -15 -26 -6
0 -22 -8 -36 -19 -15 -10 -49 -31 -77 -46 -27 -15 -151 -84 -275 -153 -270
-150 -296 -164 -380 -209 -36 -20 -83 -46 -105 -58 -98 -55 -178 -95 -183 -91
-10 11 -8 1009 2 1018 10 8 389 239 851 518 116 70 212 125 215 123 3 -3 6
-235 6 -518z m2550 -877 l0 -1353 -20 -15 c-12 -8 -30 -20 -41 -26 -11 -6
-118 -68 -238 -137 -120 -70 -237 -138 -260 -151 -23 -13 -67 -38 -97 -56 -30
-18 -73 -43 -95 -56 -22 -12 -110 -63 -195 -112 -85 -50 -255 -148 -378 -218
-122 -71 -235 -136 -250 -145 -52 -31 -646 -374 -754 -436 -5 -2 -8 264 -8
591 l0 596 38 20 c68 38 126 72 179 106 28 19 54 34 57 34 4 0 39 20 79 44 39
23 103 61 140 82 38 21 83 47 100 58 43 25 285 165 322 186 17 10 97 56 178
104 82 47 151 86 153 86 3 0 20 10 37 23 l33 22 0 757 c0 724 1 758 18 777 11
12 23 21 27 21 5 0 46 22 91 49 46 26 106 61 133 76 99 55 142 79 245 138 58
33 125 71 150 85 25 13 74 41 110 62 36 20 101 56 145 80 44 23 84 47 90 51 5
5 10 9 10 9 1 0 2 -609 1 -1352z m-2222 -75 c66 -37 201 -113 300 -170 98 -57
180 -103 182 -103 1 0 48 -27 104 -60 56 -33 105 -60 110 -60 5 0 10 -3 12 -7
2 -5 17 -15 33 -23 17 -9 30 -22 30 -29 0 -13 -79 -61 -390 -241 -82 -47 -268
-155 -413 -239 l-262 -153 -43 22 c-67 35 -149 81 -189 107 -21 12 -40 23 -42
23 -3 0 -31 15 -63 34 -32 18 -130 74 -218 123 -222 125 -255 143 -295 165
-49 27 -87 59 -75 64 6 2 222 125 480 272 585 333 598 340 609 341 5 1 63 -29
130 -66z"/>
</g>
</svg>
